<svg width="134" height="36" viewBox="0 0 134 36" fill="none" xmlns="http://www.w3.org/2000/svg">
<path d="M65.4496 26.9023C64.2794 26.8731 63.1534 26.9382 62.0273 26.8559C61.5807 26.8227 61.1434 26.747 60.7127 26.6262C59.124 26.18 58.3163 25.0328 57.9137 23.5311C57.6195 22.4316 57.57 21.3043 57.5714 20.1731C57.5714 18.6461 57.566 17.1178 57.5794 15.5908C57.5888 14.5047 57.6944 13.4291 58.0341 12.3855C58.5891 10.6766 59.7846 9.74848 61.5526 9.51213C61.9163 9.463 62.2854 9.43246 62.6519 9.43113C64.5696 9.42582 66.4887 9.42582 68.4064 9.43777C69.1687 9.44308 69.9189 9.56391 70.6237 9.86532C71.9824 10.4482 72.6537 11.5609 72.9733 12.9325C73.19 13.8633 73.2716 14.8127 73.2716 15.7648C73.2716 17.6237 73.321 19.4839 73.2395 21.3428C73.2007 22.2378 73.079 23.1234 72.7995 23.9838C72.2646 25.6316 71.1118 26.5279 69.4134 26.7828C68.0814 26.982 66.7414 26.8572 65.4496 26.9023ZM70.1034 18.1561C70.0566 16.9067 70.1609 15.6545 70.0312 14.4051C69.9229 13.3667 69.5257 12.8091 68.7447 12.6484C68.4946 12.5966 68.2365 12.5687 67.9824 12.5674C66.264 12.5608 64.5469 12.5581 62.8284 12.5661C61.5138 12.5714 60.9642 13.0667 60.8037 14.3599C60.7957 14.4263 60.7943 14.4927 60.789 14.5591C60.6713 15.8856 60.7395 17.2147 60.7341 18.5425C60.7288 19.638 60.6927 20.7334 60.7903 21.8288C60.9 23.0624 61.4135 23.6851 62.5141 23.7077C64.4425 23.7448 66.3736 23.7382 68.3034 23.7103C69.2302 23.697 69.721 23.2721 69.9363 22.429C69.9831 22.2471 70.0125 22.0599 70.0326 21.874C70.165 20.6365 70.058 19.395 70.1048 18.1561H70.1034Z" fill="#050505"/>
<path d="M130.101 19.6261C130.81 20.833 131.497 22.0068 132.186 23.1793C132.707 24.0676 133.232 24.9532 133.75 25.8415C134.118 26.4709 133.87 26.8958 133.139 26.8958C132.504 26.8958 131.868 26.8825 131.232 26.9011C130.804 26.913 130.53 26.7497 130.319 26.3753C129.129 24.2521 127.914 22.1409 126.726 20.0164C126.573 19.7442 126.406 19.6632 126.105 19.6672C124.845 19.6845 123.584 19.6805 122.324 19.6672C122.085 19.6646 122.033 19.7323 122.034 19.9607C122.044 21.9749 122.04 23.9905 122.04 26.0048C122.04 26.7165 121.862 26.8944 121.16 26.8944H119.687C119.089 26.8931 118.887 26.7006 118.879 26.0978C118.871 25.5109 118.877 24.924 118.877 24.3371V17.4949C118.877 17.3396 118.874 17.1829 118.898 17.0315C118.945 16.7328 119.121 16.5575 119.434 16.5376C119.535 16.531 119.635 16.5336 119.735 16.5336H128.602C129.654 16.5336 130.065 16.1897 130.191 15.1553C130.251 14.6614 130.248 14.1621 130.146 13.6682C129.99 12.9074 129.583 12.5648 128.798 12.5635C127.192 12.5595 125.586 12.5621 123.98 12.5621H119.63C119.093 12.5621 118.893 12.3829 118.882 11.8571C118.87 11.2702 118.869 10.6833 118.886 10.0978C118.901 9.60248 119.099 9.42588 119.595 9.42588C122.851 9.42456 126.109 9.42588 129.365 9.42588C129.791 9.42588 130.211 9.46572 130.624 9.56929C131.612 9.81626 132.348 10.3699 132.765 11.3087C133.4 12.7374 133.503 14.2325 133.323 15.7608C133.252 16.3663 133.113 16.9559 132.889 17.5268C132.449 18.6541 131.62 19.3114 130.438 19.5504C130.34 19.5703 130.243 19.5942 130.1 19.6274H130.101V19.6261Z" fill="#050505"/>
<path d="M44.4873 26.8609H39.6342C39.0738 26.8609 38.888 26.6989 38.8719 26.1399C38.8559 25.5649 38.8559 24.9887 38.8773 24.4137C38.8973 23.8959 39.0912 23.7299 39.6101 23.7299H48.3455C49.061 23.7299 49.3151 23.5068 49.3351 22.7885C49.3565 22.025 49.3713 21.2589 49.3298 20.4967C49.2897 19.7598 49.0075 19.5819 48.3803 19.5885C46.3502 19.6111 44.3202 19.6005 42.2888 19.5938C41.9437 19.5938 41.5947 19.5726 41.2564 19.5155C40.3416 19.3601 39.7011 18.8489 39.3373 17.9938C39.0525 17.3233 38.9053 16.6222 38.8773 15.8999C38.8305 14.7062 38.7649 13.5098 38.9629 12.3214C39.0364 11.8833 39.1808 11.4663 39.3814 11.068C39.9097 10.0217 40.7749 9.49189 41.9424 9.43612C42.2206 9.42285 42.5001 9.42683 42.7782 9.42683H51.313C51.8266 9.42683 52.0232 9.61671 52.0285 10.1239C52.0352 10.7108 52.0365 11.2977 52.0285 11.8846C52.0218 12.3666 51.8145 12.5631 51.3251 12.5631C48.5247 12.5644 45.7244 12.5631 42.9253 12.5631C42.3369 12.5631 42.1163 12.7158 42.0654 13.2947C41.9932 14.0994 41.9999 14.912 42.0628 15.7166C42.1056 16.261 42.353 16.4443 42.8999 16.4443C44.8524 16.4443 46.8049 16.4854 48.7561 16.435C51.1486 16.3739 52.1261 17.6632 52.3816 19.4385C52.6049 20.9946 52.633 22.5774 52.3441 24.1322C52.1302 25.2768 51.5819 26.2328 50.3863 26.663C49.9717 26.8117 49.5438 26.8609 49.1051 26.8609C47.5659 26.8582 46.0266 26.8609 44.486 26.8609H44.4873Z" fill="#050505"/>
<path d="M105.065 13.2443C104.919 13.4195 104.883 13.5815 104.823 13.7316C104.008 15.7737 103.195 17.8159 102.382 19.858C102.291 20.0851 102.373 20.1993 102.627 20.1993C103.352 20.1993 104.078 20.2059 104.803 20.1966C105.161 20.1913 105.394 20.3414 105.526 20.6693C105.762 21.2536 106.01 21.8325 106.239 22.4194C106.46 22.989 106.156 23.4099 105.534 23.4099C104.106 23.4112 102.678 23.4152 101.251 23.4059C101.038 23.4046 100.946 23.4697 100.87 23.6675C100.533 24.5439 100.174 25.4122 99.8225 26.2819C99.6058 26.8184 99.4895 26.8954 98.8957 26.8954C98.2605 26.8954 97.6239 26.8967 96.9887 26.8954C96.3802 26.8941 96.1756 26.6179 96.3976 26.0456C96.768 25.0869 97.1625 24.1389 97.5477 23.1855C99.1525 19.2234 100.757 15.2599 102.366 11.2977C102.643 10.6165 102.968 9.97919 103.653 9.5782C105.085 8.7377 106.893 9.32459 107.52 10.8622C109.566 15.8853 111.614 20.9097 113.66 25.9327C113.705 26.0456 113.748 26.1598 113.773 26.278C113.847 26.6126 113.681 26.8741 113.342 26.8834C112.55 26.902 111.758 26.898 110.966 26.8834C110.611 26.8768 110.466 26.6046 110.349 26.3138C109.451 24.0791 108.551 21.8444 107.653 19.6111C106.843 17.6021 106.034 15.5945 105.224 13.5855C105.182 13.4846 105.134 13.3863 105.067 13.2416L105.065 13.2443Z" fill="#050505"/>
<path d="M78.3344 15.9172C78.3344 14.057 78.3344 12.1967 78.3358 10.3378C78.3358 10.1944 78.3425 10.0496 78.3705 9.91023C78.4334 9.59819 78.6273 9.42822 78.9549 9.42822C79.6129 9.42822 80.2709 9.42822 80.9288 9.42822C81.2418 9.42955 81.4303 9.59421 81.4865 9.89429C81.5146 10.0457 81.5213 10.201 81.5226 10.355C81.5293 13.9972 81.532 17.6394 81.5427 21.2815C81.5427 21.5683 81.5748 21.8565 81.6202 22.1393C81.7968 23.2294 82.3344 23.6901 83.4497 23.7207C83.6276 23.726 83.8068 23.7273 83.9846 23.7273H90.5094C90.9936 23.7273 91.2156 23.9159 91.2316 24.3965C91.2517 25.0047 91.2517 25.6141 91.2316 26.2223C91.2169 26.6764 91.0002 26.8928 90.5696 26.8901C88.0153 26.8755 85.461 26.9685 82.9094 26.849C80.4447 26.7348 79.0847 25.5145 78.6006 23.1019C78.4107 22.1539 78.3384 21.1952 78.3358 20.2312C78.3318 18.7919 78.3358 17.3526 78.3358 15.9132V15.9172H78.3344Z" fill="#050505"/>
<path d="M4.58832 21.8101C4.07612 21.3334 3.67359 20.8647 3.28041 20.3906C2.79764 19.8091 2.36301 19.1943 1.94041 18.5676C1.69568 18.2038 1.71307 17.8891 1.96047 17.5319C4.13363 14.389 6.90991 11.9126 10.2706 10.0736C11.64 9.32474 13.0683 8.71528 14.5166 8.13105C16.3434 7.39412 18.2424 7.04225 20.1855 6.84308C20.9598 6.76341 21.2768 6.92806 21.6231 7.62914C22.1407 8.67279 22.5566 9.75628 22.8776 10.8756C22.9016 10.9606 22.9364 11.0416 22.907 11.1332C22.7773 11.1332 22.7077 11.0336 22.6208 10.9699C21.4493 10.1188 20.2283 9.34864 18.9458 8.67013C18.7653 8.57453 18.6075 8.54267 18.4109 8.61038C18.003 8.7498 17.5884 8.8693 17.1137 9.01536C17.7944 9.37652 18.4122 9.69652 19.022 10.0298C21.7876 11.5422 24.1855 13.5007 26.2142 15.9027C27.2814 17.1654 27.3736 18.5901 26.4522 19.9631C26.2717 20.2326 26.2944 20.5208 26.3613 20.793C26.4509 21.1581 26.8869 21.2059 27.1503 20.8939C27.5154 20.461 27.8457 20.0003 28.1627 19.5316C28.2228 19.4413 28.2897 19.3563 28.3726 19.2408C29.1697 20.9895 29.5575 22.7621 29.1295 24.6263C28.7444 26.31 27.6598 27.4771 26.1433 28.2618C25.0226 28.8408 23.819 29.1329 22.5272 29.1979C22.8883 28.4026 23.2306 27.6232 23.5168 26.8225C24.6094 23.7526 25.1029 20.5925 24.9491 17.3367C24.9397 17.1482 24.9464 16.9596 24.9344 16.7724C24.9143 16.4657 24.715 16.2692 24.4289 16.2612C24.1413 16.2532 23.8805 16.467 23.8592 16.7578C23.8404 17.0114 23.8498 17.2663 23.8525 17.5213C23.8765 19.1731 23.7629 20.8155 23.5195 22.4501C23.4606 22.8418 23.3042 23.1511 22.9886 23.4074C21.6365 24.5015 20.2016 25.4721 18.669 26.2994C18.4644 26.4096 18.2879 26.5357 18.2437 26.7774C18.2049 26.9925 18.2879 27.1704 18.4537 27.3058C18.6382 27.4559 18.8402 27.4572 19.0475 27.3536C19.8057 26.9752 20.5239 26.5291 21.2286 26.0617C21.5523 25.8466 21.8692 25.6195 22.1888 25.3978C22.3145 25.3101 22.4429 25.2477 22.5874 25.3513C22.7264 25.4522 22.7251 25.5823 22.677 25.7364C22.3774 26.711 22.0083 27.6604 21.5416 28.5672C21.2821 29.0705 20.8435 29.2869 20.2711 29.2391C16.2324 28.8992 12.5454 27.5568 9.14191 25.4031C8.18171 24.795 7.26029 24.135 6.37097 23.43C6.06472 23.187 5.90826 22.8843 5.8454 22.5045C5.56189 20.7956 5.46427 19.0748 5.49235 17.3447C5.49502 17.2026 5.48967 17.0552 5.45624 16.9171C5.38804 16.6343 5.12993 16.455 4.86648 16.4856C4.58029 16.5175 4.37301 16.7179 4.369 17.018C4.35295 18.2356 4.35295 19.4532 4.47197 20.6682C4.50674 21.0253 4.54285 21.3825 4.58698 21.8154V21.8101H4.58832ZM11.2428 18.055C11.2402 19.9432 12.7554 21.4582 14.6503 21.4609C16.5721 21.4648 18.098 19.9618 18.102 18.0643C18.106 16.1842 16.5828 14.6612 14.6918 14.6559C12.7727 14.6492 11.2442 16.1563 11.2415 18.055H11.2428ZM19.2547 18.0803C19.2547 18.3458 19.2467 18.6114 19.2574 18.8756C19.2694 19.1823 19.4139 19.2726 19.6974 19.1385C20.2497 18.8783 20.7993 18.6114 21.3436 18.3339C21.5937 18.2064 21.5964 17.99 21.349 17.8599C20.798 17.5717 20.2403 17.2955 19.68 17.0273C19.4219 16.9038 19.2721 16.9994 19.2588 17.2849C19.2467 17.5492 19.2561 17.8147 19.2561 18.0803H19.2547ZM10.0874 13.1966C9.81325 13.174 9.70492 13.3108 9.7865 13.5538C9.98443 14.1407 10.1877 14.7249 10.4017 15.3065C10.5006 15.576 10.6678 15.6092 10.8804 15.4061C11.1867 15.1153 11.4809 14.8125 11.7805 14.5151C12.294 14.0039 12.2833 13.9548 11.5932 13.7171C11.0784 13.5392 10.5621 13.3613 10.0861 13.1979H10.0874V13.1966ZM14.6396 13.5246C14.8951 13.5246 15.1518 13.5299 15.4073 13.5246C15.7576 13.5166 15.8526 13.3759 15.7041 13.0638C15.4527 12.5354 15.1879 12.0135 14.9285 11.4891C14.8737 11.3775 14.8148 11.2686 14.6637 11.2753C14.534 11.2819 14.4711 11.3696 14.4203 11.4718C14.1515 12.0162 13.8774 12.5579 13.6152 13.1063C13.4935 13.3599 13.5885 13.51 13.8733 13.5219C14.1288 13.5339 14.3855 13.5246 14.641 13.5246H14.6396ZM19.2374 22.956C19.5276 22.9759 19.6452 22.8418 19.5663 22.6001C19.3738 22.0132 19.1691 21.429 18.9552 20.8487C18.8629 20.5978 18.6931 20.5633 18.4965 20.7492C18.2223 21.0081 17.9602 21.2789 17.6914 21.5445C17.2528 21.98 17.3223 22.2987 17.9 22.4992C18.3614 22.6585 18.8255 22.8139 19.2374 22.9546V22.956ZM14.6771 22.6306C14.3989 22.6306 14.1194 22.62 13.8426 22.6333C13.6005 22.6453 13.4909 22.7714 13.6059 23.0091C13.8787 23.576 14.1528 24.1443 14.4404 24.7047C14.5634 24.9437 14.7747 24.9516 14.8951 24.7206C15.1879 24.1629 15.4688 23.5986 15.7349 23.0277C15.8512 22.778 15.7389 22.6373 15.4447 22.6306C15.1893 22.624 14.9325 22.6293 14.6757 22.6306H14.6771ZM9.77714 22.6426C9.78918 22.871 9.88145 23.0038 10.1141 22.9281C10.7266 22.7289 11.3365 22.5218 11.9423 22.304C12.1576 22.227 12.2044 22.0597 12.0386 21.8897C11.644 21.4848 11.2415 21.0877 10.835 20.6947C10.6959 20.5606 10.5194 20.5712 10.4512 20.7518C10.2118 21.3799 9.9978 22.0185 9.77714 22.6439V22.6426ZM19.3203 13.194C19.2815 13.1993 19.2587 13.1993 19.2374 13.2059C18.6075 13.4263 17.9722 13.6374 17.349 13.8751C17.1565 13.9481 17.1805 14.1247 17.3103 14.2562C17.6994 14.6519 18.0926 15.0449 18.4938 15.4313C18.661 15.592 18.8321 15.5654 18.9137 15.345C19.1357 14.7435 19.347 14.1367 19.5489 13.5286C19.6145 13.3307 19.5209 13.2099 19.3203 13.194ZM10.0821 18.1042C10.0821 17.828 10.0901 17.5518 10.0794 17.277C10.0687 16.9875 9.9296 16.8999 9.66347 17.0247C9.11115 17.2836 8.56151 17.5492 8.01722 17.8253C7.74574 17.9634 7.74441 18.1745 8.01321 18.3113C8.5682 18.5915 9.12854 18.8597 9.69155 19.1213C9.93361 19.2341 10.0673 19.1425 10.078 18.865C10.0887 18.6114 10.0807 18.3578 10.0807 18.1028L10.0821 18.1042Z" fill="#050505"/>
<path d="M6.79227 29.1928C4.33962 29.1211 1.2611 27.9181 0.322293 25.0753C0.0695388 24.3105 0.0588402 23.5337 0.086924 22.7477C0.124369 21.7027 0.532253 20.1385 0.989619 19.3087C1.07253 19.306 1.10329 19.3711 1.1394 19.4242C3.86086 23.3054 7.481 26.099 11.7725 28.0775C11.8527 28.1146 11.9356 28.1492 12.0145 28.1903C12.1456 28.2567 12.2178 28.3629 12.2031 28.5117C12.1857 28.6816 12.064 28.7626 11.9142 28.7918C11.4114 28.8901 10.9099 28.9937 10.4031 29.0693C9.95104 29.1357 9.49501 29.1769 9.04032 29.2114C8.42515 29.2579 7.98918 28.9883 7.72706 28.4373C7.58932 28.1478 7.45692 27.8544 7.32052 27.5649C7.15469 27.2117 6.84577 27.0697 6.53952 27.2024C6.22658 27.3379 6.11425 27.6486 6.2667 28.0098C6.43253 28.4041 6.61307 28.7932 6.79094 29.1942H6.79227V29.1928Z" fill="#050505"/>
<path d="M20.4375 5.76359C19.7221 5.84857 19.0119 5.89504 18.3098 6.01056C17.2641 6.18184 16.233 6.4089 15.2273 6.73819C14.8515 6.86168 14.4945 6.86433 14.1173 6.74085C13.0582 6.39429 11.9696 6.16193 10.8717 5.97604C10.4451 5.90433 10.1361 6.08624 10.0826 6.43678C10.0332 6.76342 10.2725 7.01703 10.6871 7.0874C11.0816 7.15512 11.4761 7.23081 11.868 7.30782C12.0178 7.33703 12.1408 7.41139 12.1622 7.58267C12.1822 7.74334 12.1221 7.86682 11.9723 7.93454C10.0064 8.81753 8.16893 9.91828 6.41035 11.2195C6.3943 11.0071 6.47187 10.8504 6.52001 10.6937C7.25955 8.28641 8.3361 6.06101 10.104 4.21537C11.0709 3.20492 12.2117 2.46932 13.6132 2.22766C14.8328 2.01787 16.0337 2.10683 17.1557 2.69239C18.4997 3.39346 19.5268 4.43844 20.4001 5.64807C20.4175 5.6733 20.4215 5.70782 20.4389 5.76226H20.4375V5.76359Z" fill="#050505"/>
<path d="M20.4813 30.3732C19.2149 32.0648 17.8107 33.4723 15.6857 33.8746C14.4634 34.1057 13.2651 33.9689 12.1497 33.378C10.89 32.7102 9.84954 31.7927 9.02575 30.6335C8.9094 30.4702 8.82782 30.3613 9.13942 30.3414C10.8351 30.2338 12.4921 29.9098 14.1103 29.396C14.4888 29.2765 14.8391 29.2738 15.2189 29.3946C16.8692 29.9165 18.5623 30.2325 20.2914 30.344C20.3329 30.3467 20.373 30.356 20.4827 30.3719H20.4813V30.3732Z" fill="#050505"/>
<path d="M0.963834 16.8934C0.539902 15.9905 0.22563 15.1141 0.123994 14.1926C-0.00572691 13.0255 -0.0164256 11.8584 0.450301 10.7297C1.06547 9.24258 2.21691 8.32507 3.63046 7.66648C4.55856 7.23495 5.53615 6.99594 6.55519 6.91097C6.7491 6.89503 6.83068 6.91495 6.72235 7.13404C5.91327 8.78051 5.32485 10.5013 4.96778 12.2992C4.94772 12.4014 4.90092 12.4824 4.82068 12.5515C3.35497 13.8115 2.08451 15.2429 0.962497 16.8947H0.963834V16.8934Z" fill="#050505"/>
<path d="M28.3066 16.8427C27.2421 15.256 26.0037 13.8406 24.5768 12.5898C24.4363 12.4663 24.3681 12.3083 24.3307 12.1303C23.979 10.4347 23.4186 8.80952 22.6657 7.24935C22.5133 6.93466 22.524 6.9174 22.8744 6.94927C24.3294 7.07939 25.6881 7.49101 26.8957 8.33151C28.7185 9.59956 29.4406 11.3629 29.2534 13.5272C29.1665 14.535 28.9405 15.5109 28.5352 16.4431C28.4871 16.5546 28.4376 16.6661 28.3855 16.7763C28.3774 16.7949 28.3534 16.8055 28.3066 16.8454V16.8427Z" fill="#050505"/>
</svg>
