<svg width="132" height="36" viewBox="0 0 132 36" fill="none" xmlns="http://www.w3.org/2000/svg">
<g clip-path="url(#clip0_96_35025)">
<mask id="mask0_96_35025" style="mask-type:luminance" maskUnits="userSpaceOnUse" x="0" y="4" width="39" height="28">
<path d="M38.9664 4H0V31.7593H38.9664V4Z" fill="white"/>
</mask>
<g mask="url(#mask0_96_35025)">
<path d="M7.42706 4.0542H0V11.1475H7.42706V4.0542Z" fill="#050505"/>
<path d="M30.0964 4.0542C27.174 4.0542 24.3858 5.32402 22.4496 7.54192L7.42706 24.7226V13.8591H0V31.7226H6.53103C9.28993 31.7226 11.9194 30.5265 13.7481 28.4338L27.904 12.243C28.5119 11.5479 29.3884 11.15 30.304 11.15H31.5174V24.6317H21.7221L27.9235 31.7251H38.9445V4.0542H30.0916H30.0964Z" fill="#050505"/>
</g>
<mask id="mask1_96_35025" style="mask-type:luminance" maskUnits="userSpaceOnUse" x="47" y="4" width="85" height="28">
<path d="M132 4H47.6091V32H132V4Z" fill="white"/>
</mask>
<g mask="url(#mask1_96_35025)">
<path d="M49.8868 4H53.6883V16.0375H49.8868V4Z" fill="#050505"/>
<path d="M82.3026 4H86.104V16.0375H82.3026V4Z" fill="#050505"/>
<path d="M64.8275 4V11.5453L59.925 4H56.3262V16.0375H59.3048V8.49228L64.2049 16.0375H67.8037V4H64.8251H64.8275Z" fill="#050505"/>
<path d="M78.3763 11.4912L79.1966 9.23649H74.2282V6.25965H79.9755V4H71.8013C71.0445 4 70.4316 4.62386 70.4316 5.39509V16.0375H74.2331V11.4888H78.3787H78.3763V11.4912Z" fill="#050505"/>
<path d="M119.734 4V6.25474H116.067V16.0375H112.4V6.25474H108.77V4H119.737H119.734Z" fill="#050505"/>
<path d="M102.955 4H106.757V16.0375H102.955V4Z" fill="#050505"/>
<path d="M97.3128 4V11.5453L92.4127 4H88.8164V16.0375H91.7926V8.49228L96.6927 16.0375H100.291V4H97.3128Z" fill="#050505"/>
<path d="M125.548 13.7828H131.541V16.0375H123.118C122.361 16.0375 121.746 15.4137 121.746 14.6425V5.39509C121.746 4.62386 122.359 4 123.118 4H131.292V6.25474H125.545V9.02035H130.514L129.693 11.2751H125.545V13.7754V13.7828H125.548Z" fill="#050505"/>
<path d="M97.3016 29.6251L96.4789 31.8848H89.5474C88.8174 31.8848 88.2266 31.2805 88.2266 30.5388V19.8398H91.8962V29.6251H97.3016Z" fill="#050505"/>
<path d="M72.7036 19.8398V22.0995H69.1609V31.8848H65.4914V22.0995H61.9902V19.8398H72.7036Z" fill="#050505"/>
<path d="M82.2539 19.8397H85.9235V31.8846H82.2539V27.105H77.8885V31.8846H74.2189V19.8397H77.8885V24.8453H82.2539V19.8397Z" fill="#050505"/>
<path d="M102.505 29.6251H108.437V31.8847H100.075C99.3184 31.8847 98.7031 31.2609 98.7031 30.4896V21.2398C98.7031 20.4686 99.3159 19.8447 100.075 19.8447H108.191V22.1044H102.505V24.8749H107.41L106.587 27.1346H102.502V29.6374V29.6275H102.505V29.6251Z" fill="#050505"/>
<path d="M120.498 19.8398V22.0995H116.956V31.8848H113.286V22.0995H109.785V19.8398H120.498Z" fill="#050505"/>
<path d="M126.006 29.6249H131.939V31.8845H123.577C122.82 31.8845 122.207 31.2607 122.207 30.4894V21.2396C122.207 20.4684 122.82 19.8445 123.577 19.8445H131.692V22.1042H126.006V24.8747H130.911L130.088 27.1343H126.003V29.6371V29.6273L126.006 29.6249Z" fill="#050505"/>
<path d="M60.5704 19.8399H55.3773C54.0589 19.8399 52.8601 20.6086 52.2912 21.8171L47.5449 31.8823H50.1695C50.9459 31.8823 51.6515 31.4255 51.986 30.7107L55.9828 22.0971H56.8983V31.8823H60.5679V19.8374H60.5704V19.8399Z" fill="#050505"/>
<path d="M57.051 26.4639H52.6855V28.7235H57.051V26.4639Z" fill="#050505"/>
</g>
</g>
<defs>
<clipPath id="clip0_96_35025">
<rect width="132" height="28" fill="white" transform="translate(0 4)"/>
</clipPath>
</defs>
</svg>
