<svg width="137" height="36" viewBox="0 0 137 36" fill="none" xmlns="http://www.w3.org/2000/svg">
<path d="M36.0487 26.6211C36.1264 26.7355 36.2041 26.85 36.2041 27.0407C36.2041 27.1933 36.0875 27.384 35.7768 27.384H33.0575C32.436 27.384 32.4749 27.2696 32.2029 26.8881L26.9976 18.9154V26.85C26.9976 27.2696 26.7645 27.3459 26.5314 27.3459H24.1618C23.7733 27.3459 23.7345 27.1933 23.7345 26.85V10.6756C23.7345 10.2178 23.8899 10.1797 24.2783 10.1797H26.5314C26.9587 10.1797 27.0364 10.3323 27.0364 10.6756V17.5421L32.2029 10.6756C32.5525 10.1797 32.6302 10.1797 33.0964 10.1797H34.8445C35.0387 10.1797 35.2718 10.2178 35.2718 10.4849C35.2718 10.6375 35.1552 10.8663 35.0387 11.0189L29.9887 17.6565L36.0487 26.6211Z" fill="#050505"/>
<path d="M41.0594 26.85C41.0594 27.2696 40.9429 27.3459 40.5544 27.3459H38.5344C38.1071 27.3459 38.0294 27.2315 38.0294 26.85V16.6647C38.0294 16.0162 38.1071 15.7492 38.3402 15.5203C38.9617 14.9481 41.0983 14.4141 43.3125 14.4141C43.7009 14.4141 44.7109 14.4522 45.4102 14.8337C45.7209 14.9863 46.1871 15.4059 46.1871 16.207C46.1871 16.9699 45.6044 17.5421 44.8663 17.5421C44.5555 17.5421 44.3613 17.4277 44.1282 17.2751C43.8175 17.0462 43.6621 16.6266 43.3902 16.3596C43.2348 16.1688 42.9629 15.9399 42.3413 15.9399C41.8363 15.9399 41.3313 16.1307 41.1371 16.6647C41.0594 16.8936 41.0206 17.1988 41.0206 17.4277V26.85H41.0594Z" fill="#050505"/>
<path d="M53.878 18.7247C53.8003 17.6566 53.1788 16.2452 51.7414 16.2452C51.5861 16.2452 51.0422 16.2833 50.5372 16.5885C49.1388 17.4277 49.1388 19.3733 49.1388 19.4495L53.878 18.7247ZM49.2165 20.9754C49.333 22.6158 50.343 24.9809 52.6349 24.9809C53.2953 24.9809 54.4218 24.8664 55.7426 23.1498C55.9757 22.8446 56.131 22.6539 56.4807 22.6539C57.1022 22.6539 57.141 23.3406 57.141 23.4168C57.141 23.9891 56.7526 24.752 56.7137 24.8664C55.3541 27.6512 52.8291 27.6512 52.2076 27.6512C49.6438 27.6512 46.6915 25.9727 46.6915 21.0136C46.6915 16.207 49.5661 14.376 52.2076 14.376C54.1499 14.376 55.9368 15.2152 56.7526 17.504C56.9857 18.1525 57.0634 18.7248 57.0634 18.9536C57.0634 19.7166 56.5584 19.8692 56.2087 19.9073L49.2165 20.9754Z" fill="#050505"/>
<path d="M66.4646 16.6651C66.1538 16.4362 65.61 16.0547 64.833 16.0547C62.9684 16.0547 61.7642 18.0765 61.7642 20.8994C61.7642 23.0356 62.3857 24.5615 63.5123 25.3245C63.7454 25.4771 64.2504 25.7059 64.8719 25.7059C66.2703 25.7059 66.4257 24.7141 66.4257 24.1801V16.6651H66.4646ZM66.4646 9.26453C66.4646 9.11194 66.4646 8.73047 66.9696 8.73047H68.9507C69.4169 8.73047 69.5334 8.84491 69.5334 9.15009V24.9049C69.5334 25.1337 69.4946 25.7441 69.1838 26.2019C68.2903 27.3844 65.5323 27.6514 64.4834 27.6514C60.4046 27.6514 58.6954 24.8286 58.6954 21.3572C58.6954 18.5724 60.1327 14.3762 64.2115 14.3762C65.2603 14.3762 65.8819 14.6814 66.4646 15.0247V9.26453Z" fill="#050505"/>
<path d="M77.2245 25.6675C78.9726 25.6675 79.7883 23.4549 79.7883 21.0517C79.7883 19.2587 79.128 16.2451 76.9914 16.2451C75.321 16.2451 74.3887 18.2288 74.3887 20.7083C74.4276 23.3023 75.5541 25.6675 77.2245 25.6675ZM77.108 27.6893C72.9514 27.6893 71.2034 24.2179 71.2034 20.8609C71.2034 17.6566 73.3011 14.4141 77.1857 14.4141C81.0314 14.4141 83.0514 17.8092 83.0514 20.8991C83.0514 25.1334 80.4876 27.6893 77.108 27.6893Z" fill="#050505"/>
<path d="M88.7632 25.4388C89.4235 25.5151 90.1228 25.5533 90.4335 25.5533C91.1716 25.5533 94.2404 25.477 94.2404 22.5397C94.2404 21.8912 94.0851 21.0901 93.5412 20.4416C92.7643 19.4879 91.6766 19.1827 89.812 19.1827C89.4235 19.1827 89.1516 19.2209 88.7632 19.2209V25.4388ZM88.7632 17.5424H89.5012C90.5501 17.5424 92.1039 17.5042 92.9585 16.1691C93.1528 15.8639 93.4247 15.368 93.4247 14.6432C93.4247 13.3844 92.8031 11.8585 90.1616 11.8585C89.3847 11.8585 88.8408 11.8966 88.7632 11.9348V17.5424ZM85.4612 11.1718C85.4612 10.3707 85.8885 10.2563 86.9762 10.1418C87.4424 10.1037 88.6078 9.98926 89.9285 9.98926C92.0651 9.98926 96.7654 10.2181 96.7654 14.2236C96.7654 16.8939 94.2404 17.962 93.5801 18.1909C97.2316 18.9538 97.7366 21.3953 97.7366 22.7304C97.7366 24.1037 97.2316 24.9811 96.7266 25.5533C95.4058 27.0792 93.2693 27.5369 89.9674 27.5369C88.8408 27.5369 87.2482 27.4225 86.3935 27.3081C85.7332 27.1936 85.5001 27.0792 85.5001 26.3162V11.1718H85.4612Z" fill="#050505"/>
<path d="M105.116 21.2043C103.757 21.6239 102.358 22.2724 102.358 23.8746C102.358 25.0953 103.096 25.9726 104.417 25.9726C105.971 25.9726 105.971 24.8664 105.971 24.3705V20.9372L105.116 21.2043ZM105.971 18.3051C105.971 17.0081 105.738 16.0925 104.417 16.0925C102.32 16.0925 103.213 18.6484 101.31 18.6484C100.571 18.6484 99.9888 18.0762 99.9888 17.3514C99.9888 16.8173 100.3 16.3214 100.455 16.1307C101.504 14.6811 103.718 14.4141 104.845 14.4141C108.341 14.4141 108.885 16.2833 108.885 18.038V24.7901C108.885 25.553 108.768 26.0489 108.574 26.3541C107.719 27.5367 105.155 27.6893 104.029 27.6893C100.843 27.6893 99.3672 26.2778 99.3672 24.2179C99.3672 21.128 103.252 20.2506 105.194 19.7928L105.971 19.6021V18.3051Z" fill="#050505"/>
<path d="M119.295 27.3459C118.868 27.3459 118.751 27.1933 118.751 26.7737V18.1906C118.751 17.4658 118.596 16.0925 116.653 16.0925C115.643 16.0925 115.022 16.5502 114.75 17.1606C114.672 17.3132 114.633 17.6565 114.633 18.1524V26.8118C114.633 27.1933 114.595 27.384 114.09 27.384H112.07C111.642 27.384 111.565 27.2314 111.565 26.8881V16.9699C111.565 16.5121 111.603 16.0925 112.031 15.6347C112.691 14.9862 114.789 14.4521 116.925 14.4521C118.479 14.4521 121.043 14.6047 121.703 16.9317C121.82 17.4276 121.82 17.8091 121.82 18.2669V26.8881C121.82 27.2314 121.742 27.384 121.315 27.384H119.295V27.3459Z" fill="#050505"/>
<path d="M135.768 26.6215C135.923 26.7741 136.001 26.8885 136.001 27.0029C136.001 27.1937 135.884 27.3463 135.574 27.3463H132.854C132.544 27.3463 132.349 27.3463 132.077 26.9648L127.649 21.1283V26.8885C127.649 27.1555 127.61 27.3463 127.144 27.3463H125.085C124.619 27.3463 124.58 27.1937 124.58 26.8885V9.18823C124.58 8.76862 124.736 8.73047 124.969 8.73047H127.144C127.377 8.73047 127.649 8.73047 127.649 9.11194V20.0983L132.077 15.2536C132.505 14.7577 132.66 14.7577 133.087 14.7577H134.758C134.952 14.7577 135.263 14.7577 135.263 15.0629C135.263 15.2155 135.146 15.3681 135.03 15.5207L130.64 20.1365L135.768 26.6215Z" fill="#050505"/>
<path opacity="0.6" d="M0.466152 5.60218C0.233076 5.25886 0 4.91553 0 4.61035C0 4.07629 0.427306 4 0.77692 4H4.07883C4.97229 4 5.08883 4 5.74921 4.91553L15.6161 18L5.74921 31.0845C5.08883 32 4.97229 32 4.07883 32H0.77692C0.38846 32 0 31.9237 0 31.3896C0 31.0845 0.233076 30.703 0.466152 30.3978L9.94458 18L0.466152 5.60218Z" fill="#050505"/>
</svg>
