<svg width="90" height="36" viewBox="0 0 90 36" fill="none" xmlns="http://www.w3.org/2000/svg">
<path d="M50.5409 14.0887C50.5409 11.5109 50.5859 9.11089 50.7209 6.88867L43.8359 8.17756V8.79978L44.5109 8.88867C45.0059 8.93312 45.3209 9.11089 45.5009 9.37756C45.6809 9.68867 45.8159 10.1331 45.9059 10.7998C45.9959 12.0887 46.0859 15.022 46.0409 19.6442C46.0409 24.222 45.9959 27.1109 45.9059 28.222C48.3809 28.7553 50.3159 28.9776 51.7559 28.9776C54.4559 28.9776 56.5709 28.222 58.1009 26.6664C59.6309 25.1553 60.4409 23.022 60.4409 20.3998C60.4409 18.3109 59.8559 16.5776 58.6859 15.1998C57.5159 13.822 56.0309 13.1553 54.2759 13.1553C53.1059 13.1553 51.8909 13.4665 50.5409 14.0887ZM50.6759 27.7776C50.5859 26.3553 50.4959 22.0887 50.4959 15.1109C50.9009 14.9776 51.4409 14.8887 52.1159 14.8887C53.1959 14.8887 54.0509 15.422 54.6809 16.5331C55.3109 17.6442 55.6259 18.9776 55.6259 20.6664C55.6259 22.7553 55.2659 24.4442 54.5459 25.8665C53.8259 27.2442 52.9259 27.9553 51.8009 27.9553C51.4409 27.8665 51.0809 27.822 50.6759 27.7776ZM18.0059 7.33312H0.00585938V8.22201L0.950859 8.31089C1.67086 8.44423 2.16586 8.71089 2.48086 9.11089C2.79586 9.55534 2.97586 10.2664 3.02086 11.2442C3.38086 16.0442 3.38086 20.5331 3.02086 24.6664C2.93086 25.6442 2.75086 26.3553 2.48086 26.7998C2.16586 27.2442 1.67086 27.5109 0.950859 27.5998L0.00585938 27.7331V28.622H11.6159V27.7331L10.4009 27.6442C10.1044 27.6197 9.81598 27.5362 9.55304 27.3987C9.2901 27.2612 9.05805 27.0726 8.87086 26.8442C8.55586 26.3998 8.37586 25.6887 8.33086 24.7109C8.19586 22.9331 8.10586 20.8887 8.10586 18.622L10.5359 18.6664C11.8409 18.7109 12.7409 19.6887 13.1909 21.6442H14.0909V14.3998H13.1909C12.7409 16.3109 11.8859 17.2887 10.5359 17.3331L8.10586 17.3776C8.10586 13.3776 8.19586 10.5331 8.33086 8.79978H11.8859C14.4059 8.79978 16.1159 10.3998 17.1059 13.5998L18.1859 13.2887L18.0059 7.33312ZM15.8909 21.022C15.8909 23.3331 16.5659 25.2442 17.8709 26.7553C19.1759 28.2665 21.1109 28.9776 23.5409 28.9776C25.9709 28.9776 27.9509 28.222 29.3909 26.6664C30.8309 25.1553 31.5059 23.2442 31.5059 20.9331C31.5059 18.622 30.8309 16.7109 29.5259 15.1998C28.2209 13.6887 26.2859 12.9776 23.8559 12.9776C21.4259 12.9776 19.4459 13.7331 18.0059 15.2887C16.5659 16.7998 15.8909 18.7109 15.8909 21.022ZM25.9259 15.9553C26.4659 17.2442 26.6909 18.9331 26.6909 20.9776C26.6909 25.6887 25.7009 27.9998 23.7659 27.9998C22.7759 27.9998 22.0109 27.3331 21.4709 25.9998C20.9309 24.6664 20.7059 22.9776 20.7059 20.9776C20.7059 16.3109 21.6959 13.9998 23.6309 13.9998C24.6209 13.9553 25.3859 14.622 25.9259 15.9553ZM63.9509 26.7553C65.4359 28.222 67.3259 28.9776 69.5759 28.9776C70.9709 28.9776 72.1859 28.7109 73.2659 28.1331C74.3459 27.5998 75.2009 26.9331 75.7859 26.1331L75.3359 25.5998C74.3459 26.3553 73.2209 26.7109 71.9159 26.7109C70.1159 26.7109 68.7209 26.1331 67.7759 24.9331C66.7859 23.7331 66.3359 22.222 66.4259 20.2664H76.0559C76.0559 18.1331 75.5159 16.3998 74.3909 15.022C73.2659 13.6887 71.6909 13.022 69.6659 13.022C67.1459 13.022 65.2109 13.822 63.8159 15.3776C62.4209 16.9331 61.7459 18.8442 61.7459 21.1109C61.7459 23.422 62.4659 25.2887 63.9509 26.7553ZM67.2809 15.5998C67.7759 14.5331 68.4059 13.9998 69.2609 13.9998C70.6109 13.9998 71.2859 15.6887 71.2859 19.1109L66.5159 19.1998C66.5609 17.8665 66.7859 16.6664 67.2809 15.5998ZM88.1609 13.822C86.9459 13.2887 85.4159 12.9776 83.5709 12.9776C81.6809 12.9776 80.1959 13.4664 79.0709 14.3998C77.9459 15.3331 77.3609 16.4887 77.3609 17.8665C77.3609 19.0665 77.7209 19.9998 78.3959 20.6664C79.0709 21.3331 80.1509 21.9109 81.5459 22.3998C82.8059 22.8442 83.7059 23.2887 84.1559 23.6887C84.6059 24.1331 84.8759 24.622 84.8759 25.2887C84.8759 25.9109 84.6509 26.4887 84.1559 26.9331C83.7059 27.422 83.0759 27.6442 82.2659 27.6442C80.2859 27.6442 78.8009 26.222 77.7659 23.3776L77.0009 23.5998L77.1809 28.0442C78.8009 28.6664 80.6009 28.9776 82.5809 28.9776C84.6509 28.9776 86.2259 28.5331 87.3959 27.5998C88.5659 26.7109 89.1509 25.422 89.1509 23.822C89.1509 22.7553 88.8809 21.8665 88.2959 21.1998C87.7109 20.5331 86.7659 19.9553 85.4159 19.422C83.9309 18.8887 82.8959 18.3998 82.3559 17.9553C81.8159 17.5109 81.5459 16.9776 81.5459 16.3109C81.5459 15.6442 81.7259 15.1109 82.1309 14.6664C82.5359 14.222 83.0309 14.0442 83.6609 14.0442C85.4609 14.0442 86.7659 15.3331 87.5759 17.8665L88.3409 17.6442L88.1609 13.822ZM44.8709 13.422C44.2409 13.1109 43.5659 12.9776 42.8009 12.9776C42.0359 12.9776 41.2709 13.2887 40.4159 13.9109C39.5609 14.5331 38.9309 15.3776 38.4359 16.5331L38.4809 12.9776L31.6409 14.3109V14.9331L32.3159 14.9776C33.1709 15.0665 33.6659 15.7331 33.7559 16.9331C34.0259 19.6887 34.0259 22.622 33.7559 25.7331C33.6659 26.9331 33.1709 27.5553 32.3159 27.6887L31.6409 27.7776V28.622H41.1809V27.7776L39.9659 27.6887C39.1109 27.5998 38.6159 26.9331 38.5259 25.7331C38.2559 23.1553 38.2109 20.3998 38.4359 17.5553C38.7059 17.1109 39.2909 16.8442 40.1909 16.7553C41.0909 16.6665 42.1259 16.9331 43.2059 17.5553L44.8709 13.422Z" fill="#050505"/>
</svg>
