<svg width="176" height="36" viewBox="0 0 176 36" fill="none" xmlns="http://www.w3.org/2000/svg">
<path d="M133.635 10H125.383C122.212 10 119.643 12.494 119.643 15.573V20.427C119.643 23.507 122.212 26 125.383 26H133.83V25.992C136.91 25.892 139.376 23.442 139.376 20.427V15.573C139.376 12.493 136.807 10 133.635 10ZM132.746 23.342H126.273V12.658H132.746V23.342ZM41.969 10H33.717C30.545 10 27.977 12.494 27.977 15.573V20.427C27.977 23.507 30.545 26 33.717 26H42.164V25.992C45.244 25.892 47.709 23.442 47.709 20.427V15.573C47.71 12.493 45.139 10 41.969 10ZM41.079 23.342H34.606V12.658H41.079V23.342ZM88.156 12.786L83.363 20.845V10H80.043C77.99 10 76.096 11.062 75.071 12.786L68.125 24.465L65.068 19.326C67.264 19.301 69.038 17.566 69.038 15.428V13.901C69.038 11.747 67.238 10 65.019 10H49.305V26H55.935V19.33H57.416L61.383 26H70.275L76.733 15.138V26H83.363V25.994L89.793 15.183V26H96.423V10H93.125C91.073 10 89.178 11.062 88.153 12.786H88.156ZM62.407 16.671H55.935V12.658H62.407V16.671ZM111.377 16.67H104.904V10H98.274V26H104.904V19.33H111.377V26H118.007V10H111.377V16.67ZM147.642 10H141.012V20.427C141.012 23.507 143.581 26 146.752 26H156.201V23.342H147.642V10ZM176 12.658V10H157.906V26H176V23.342H164.536V19.329H173.609V16.671H164.536V12.658H176ZM26.15 10L19.693 20.862V10H13.063V10.006L6.633 20.817V10H0V26H3.298C5.35 26 7.244 24.938 8.269 23.213L13.062 15.155V26H16.383C18.436 26 20.33 24.938 21.355 23.213L29.213 10H26.15Z" fill="#050505"/>
</svg>
