<svg width="104" height="36" viewBox="0 0 104 36" fill="none" xmlns="http://www.w3.org/2000/svg">
<path d="M41.7569 15.5347C40.9093 15.5347 40.2801 15.3351 39.8692 14.9359C39.4668 14.5367 39.2656 13.9124 39.2656 13.063V9.08791C39.2656 8.23853 39.4668 7.61423 39.8692 7.21503C40.2801 6.81582 40.9093 6.61621 41.7569 6.61621H45.8918C46.7393 6.61621 47.3642 6.81582 47.7666 7.21503C48.1775 7.61423 48.3829 8.23853 48.3829 9.08791V13.063C48.3829 13.9124 48.1775 14.5367 47.7666 14.9359C47.3642 15.3351 46.7393 15.5347 45.8918 15.5347H41.7569ZM42.5273 13.6746H45.1212C45.5151 13.6746 45.789 13.5982 45.9431 13.4453C46.0972 13.2839 46.1743 13.012 46.1743 12.6299V9.52108C46.1743 9.1389 46.0972 8.87133 45.9431 8.71843C45.789 8.55705 45.5151 8.47633 45.1212 8.47633H42.5273C42.1421 8.47633 41.8681 8.55705 41.7055 8.71843C41.5514 8.87133 41.4744 9.1389 41.4744 9.52108V12.6299C41.4744 13.012 41.5514 13.2839 41.7055 13.4453C41.8681 13.5982 42.1421 13.6746 42.5273 13.6746Z" fill="#050505"/>
<path d="M54.9011 8.75781C55.6887 8.75781 56.258 8.93196 56.609 9.28019C56.9599 9.61993 57.1354 10.1848 57.1354 10.9747V15.0262C57.1354 15.366 56.9642 15.5358 56.6218 15.5358H55.556C55.2135 15.5358 55.0423 15.366 55.0423 15.0262V11.3315C55.0423 10.9917 54.9781 10.7624 54.8497 10.6434C54.7298 10.5161 54.4987 10.4523 54.1562 10.4523H53.5014C52.9278 10.4523 52.4826 10.5755 52.1659 10.8218L51.7678 11.153V15.0262C51.7678 15.366 51.5966 15.5358 51.2541 15.5358H50.2012C49.8587 15.5358 49.6875 15.366 49.6875 15.0262V9.26742C49.6875 8.92768 49.8587 8.75781 50.2012 8.75781H50.9588C51.2584 8.75781 51.4511 8.90222 51.5366 9.19098L51.6266 9.59868C52.046 9.24196 52.4184 9.01262 52.7438 8.91071C53.069 8.8088 53.5527 8.75781 54.1948 8.75781H54.9011Z" fill="#050505"/>
<path d="M63.5927 8.75781C64.3798 8.75781 64.9496 8.93196 65.3002 9.28019C65.6515 9.61993 65.8268 10.1848 65.8268 10.9747V11.9812C65.8268 12.3209 65.6558 12.4908 65.3133 12.4908H60.4592V13.0514C60.4592 13.3912 60.5234 13.6248 60.6518 13.7521C60.7802 13.8711 61.0157 13.9306 61.3581 13.9306H63.207C63.6184 13.9306 63.8238 13.7521 63.8238 13.3954V13.37C63.8238 13.1491 63.9346 13.0387 64.1575 13.0387H65.416C65.6896 13.0387 65.8268 13.1746 65.8268 13.4464V13.6248C65.8268 14.2873 65.6684 14.7714 65.3515 15.0772C65.0435 15.383 64.5601 15.5358 63.9008 15.5358H60.6133C59.8257 15.5358 59.2564 15.366 58.9054 15.0262C58.5544 14.678 58.3789 14.1089 58.3789 13.319V10.9747C58.3789 10.1848 58.5544 9.61993 58.9054 9.28019C59.2564 8.93196 59.8257 8.75781 60.6133 8.75781H63.5927ZM60.4592 11.2422H63.8238V11.1148C63.8238 10.7751 63.7593 10.5457 63.6309 10.4268C63.5026 10.2994 63.2672 10.2357 62.9247 10.2357H61.3581C61.0157 10.2357 60.7802 10.2994 60.6518 10.4268C60.5234 10.5457 60.4592 10.7751 60.4592 11.1148V11.2422Z" fill="#050505"/>
<path d="M73.3579 15.5347C72.5108 15.5347 71.8815 15.3351 71.4708 14.9359C71.0682 14.5367 70.8672 13.9124 70.8672 13.063V9.08791C70.8672 8.23853 71.0682 7.61423 71.4708 7.21503C71.8815 6.81582 72.5108 6.61621 73.3579 6.61621H77.1592C78.0069 6.61621 78.6318 6.81582 79.0338 7.21503C79.4452 7.61423 79.6505 8.23853 79.6505 9.08791V9.62305C79.6505 9.96279 79.479 10.1327 79.1365 10.1327H78.0326C77.6901 10.1327 77.5186 9.96279 77.5186 9.62305V9.47015C77.5186 9.0964 77.4415 8.83311 77.2875 8.68021C77.1335 8.52731 76.8592 8.45087 76.466 8.45087H74.1287C73.7436 8.45087 73.4694 8.52731 73.3066 8.68021C73.1526 8.83311 73.0755 9.10489 73.0755 9.49561V12.6553C73.0755 13.046 73.1526 13.3178 73.3066 13.4707C73.4694 13.6236 73.7436 13.7001 74.1287 13.7001H76.466C76.8592 13.7001 77.1335 13.6236 77.2875 13.4707C77.4415 13.3178 77.5186 13.046 77.5186 12.6553V12.4387C77.5186 12.099 77.6901 11.9291 78.0326 11.9291H79.1365C79.479 11.9291 79.6505 12.099 79.6505 12.4387V13.063C79.6505 13.9124 79.4452 14.5367 79.0338 14.9359C78.6318 15.3351 78.0069 15.5347 77.1592 15.5347H73.3579Z" fill="#050505"/>
<path d="M81.5062 15.5347C81.1637 15.5347 80.9922 15.3648 80.9922 15.0251V7.12584C80.9922 6.78609 81.1637 6.61621 81.5062 6.61621H82.5976C82.9401 6.61621 83.111 6.78609 83.111 7.12584V15.0251C83.111 15.3648 82.9401 15.5347 82.5976 15.5347H81.5062Z" fill="#050505"/>
<path d="M85.1293 8.11962C84.7868 8.11962 84.6152 7.94974 84.6152 7.60999V7.12584C84.6152 6.78609 84.7868 6.61621 85.1293 6.61621H86.2206C86.5631 6.61621 86.7341 6.78609 86.7341 7.12584V7.60999C86.7341 7.94974 86.5631 8.11962 86.2206 8.11962H85.1293ZM85.1293 15.5347C84.7868 15.5347 84.6152 15.3648 84.6152 15.0251V9.26627C84.6152 8.92653 84.7868 8.75666 85.1293 8.75666H86.2206C86.5631 8.75666 86.7341 8.92653 86.7341 9.26627V15.0251C86.7341 15.3648 86.5631 15.5347 86.2206 15.5347H85.1293Z" fill="#050505"/>
<path d="M90.3089 15.5358C89.5212 15.5358 88.9514 15.366 88.6008 15.0262C88.2495 14.678 88.0742 14.1089 88.0742 13.319V10.9747C88.0742 10.1848 88.2495 9.61993 88.6008 9.28019C88.9514 8.93196 89.5212 8.75781 90.3089 8.75781H93.082C93.8697 8.75781 94.4394 8.93196 94.7901 9.28019C95.1413 9.61993 95.3167 10.1848 95.3167 10.9747V11.1148C95.3167 11.4036 95.1714 11.548 94.8802 11.548H93.6987C93.442 11.548 93.3137 11.4206 93.3137 11.1658V11.1403C93.3137 10.843 93.2492 10.6477 93.1208 10.5543C93.0012 10.4608 92.7658 10.4141 92.4145 10.4141H91.0533C90.7108 10.4141 90.4754 10.4778 90.3471 10.6052C90.2187 10.7241 90.1542 10.9534 90.1542 11.2932V13.0005C90.1542 13.3402 90.2187 13.5738 90.3471 13.7012C90.4754 13.8201 90.7108 13.8796 91.0533 13.8796H92.4145C92.757 13.8796 92.9925 13.8244 93.1208 13.714C93.2492 13.595 93.3137 13.3827 93.3137 13.0769V13.0514C93.3137 12.7966 93.442 12.6692 93.6987 12.6692H94.8802C95.1714 12.6692 95.3167 12.8136 95.3167 13.1024V13.319C95.3167 14.1089 95.1413 14.678 94.7901 15.0262C94.4394 15.366 93.8697 15.5358 93.082 15.5358H90.3089Z" fill="#050505"/>
<path d="M103.791 14.8085C103.98 15.0038 104.04 15.1738 103.971 15.3181C103.911 15.4625 103.749 15.5347 103.483 15.5347H102.16C101.87 15.5347 101.625 15.4243 101.428 15.2034L98.6933 12.375V14.9359C98.6933 15.3351 98.4967 15.5347 98.1028 15.5347H97.2037C96.8099 15.5347 96.6133 15.3351 96.6133 14.9359V7.21503C96.6133 6.81582 96.8099 6.61621 97.2037 6.61621H98.1028C98.4967 6.61621 98.6933 6.81582 98.6933 7.21503V11.9418L101.364 9.08791C101.561 8.86706 101.805 8.75666 102.096 8.75666H103.393C103.658 8.75666 103.821 8.82883 103.881 8.97324C103.95 9.11765 103.89 9.28752 103.702 9.48285L100.966 12.1075L103.791 14.8085Z" fill="#050505"/>
<path d="M41.7596 27.6685C40.9377 27.6685 40.3342 27.4775 39.9489 27.0952C39.5637 26.713 39.3711 26.1141 39.3711 25.2987V21.1198C39.3711 20.3044 39.5637 19.7056 39.9489 19.3234C40.3342 18.9411 40.9377 18.75 41.7596 18.75H45.5349C46.3568 18.75 46.9603 18.9411 47.3455 19.3234C47.7308 19.7056 47.9234 20.3044 47.9234 21.1198V21.6931C47.9234 21.9479 47.795 22.0754 47.5381 22.0754H46.7163C46.4595 22.0754 46.3311 21.9479 46.3311 21.6931V21.3873C46.3311 20.9202 46.2326 20.5932 46.0357 20.4063C45.8474 20.2195 45.5178 20.126 45.047 20.126H42.2989C41.8281 20.126 41.4942 20.2237 41.2973 20.419C41.109 20.6059 41.0148 20.9329 41.0148 21.4001V25.0185C41.0148 25.4856 41.109 25.8169 41.2973 26.0122C41.4942 26.1991 41.8281 26.2925 42.2989 26.2925H45.047C45.5178 26.2925 45.8474 26.1991 46.0357 26.0122C46.2326 25.8169 46.3311 25.4856 46.3311 25.0185V24.6235C46.3311 24.3687 46.4595 24.2413 46.7163 24.2413H47.5381C47.795 24.2413 47.9234 24.3687 47.9234 24.6235V25.2987C47.9234 26.1141 47.7308 26.713 47.3455 27.0952C46.9603 27.4775 46.3568 27.6685 45.5349 27.6685H41.7596Z" fill="#050505"/>
<path d="M53.7318 20.9414C53.9886 20.9414 54.117 21.0688 54.117 21.3236V21.9989C54.117 22.2537 53.9886 22.3812 53.7318 22.3812H53.1539C52.4434 22.3812 51.887 22.5255 51.4846 22.8143L50.9709 23.2093V27.2863C50.9709 27.5411 50.8425 27.6685 50.5857 27.6685H49.7896C49.5327 27.6685 49.4043 27.5411 49.4043 27.2863V21.3236C49.4043 21.0688 49.5327 20.9414 49.7896 20.9414H50.1876C50.4187 20.9414 50.56 21.0519 50.6114 21.2727L50.7269 21.9352L50.9324 21.7823C51.369 21.4256 51.75 21.1963 52.0753 21.0943C52.4006 20.9924 52.8672 20.9414 53.475 20.9414H53.7318Z" fill="#050505"/>
<path d="M61.8975 20.9414C62.0431 20.9414 62.1415 20.9839 62.1928 21.0688C62.2442 21.1453 62.2399 21.2515 62.18 21.3873L58.9826 27.8214C58.6059 28.6029 58.212 29.1125 57.8012 29.3503C57.3902 29.5881 56.7396 29.707 55.8493 29.707H55.3484C55.0917 29.707 54.9632 29.5796 54.9632 29.3248V28.8407C54.9632 28.5859 55.0917 28.4585 55.3484 28.4585H55.9905C56.4357 28.4585 56.7696 28.399 56.9922 28.2801C57.2147 28.1611 57.4245 27.9191 57.6214 27.5538L54.5523 21.3873C54.4924 21.2515 54.4881 21.1453 54.5395 21.0688C54.5994 20.9839 54.7021 20.9414 54.8477 20.9414H55.7594C55.9905 20.9414 56.1404 21.0434 56.2088 21.2472L58.379 26.0759L60.6005 21.2472C60.669 21.0434 60.8189 20.9414 61.05 20.9414H61.8975Z" fill="#050505"/>
<path d="M68.2734 20.9414C69.0273 20.9414 69.5708 21.1071 69.9045 21.4383C70.2382 21.7611 70.4054 22.3004 70.4054 23.0564V25.5536C70.4054 26.3095 70.2382 26.8531 69.9045 27.1844C69.5708 27.5071 69.0273 27.6685 68.2734 27.6685H67.3361C66.6856 27.6685 66.1847 27.6176 65.834 27.5156C65.4915 27.4137 65.1021 27.1844 64.665 26.8276L64.6525 26.8149V29.3248C64.6525 29.5796 64.5242 29.707 64.2674 29.707H63.471C63.2143 29.707 63.0859 29.5796 63.0859 29.3248V21.3236C63.0859 21.0688 63.2143 20.9414 63.471 20.9414H64.0233C64.2543 20.9414 64.3958 21.0519 64.4471 21.2727L64.5498 21.8715L64.665 21.7823C65.1021 21.4256 65.4915 21.1963 65.834 21.0943C66.1847 20.9924 66.6856 20.9414 67.3361 20.9414H68.2734ZM68.8513 25.337V23.273C68.8513 22.8568 68.7743 22.5723 68.6203 22.4194C68.4663 22.2665 68.1795 22.19 67.76 22.19H66.8352C66.1252 22.19 65.5685 22.3387 65.1659 22.636L64.6525 23.0182V25.5918L65.1659 25.974C65.5685 26.2713 66.1252 26.4199 66.8352 26.4199H67.76C68.1795 26.4199 68.4663 26.3435 68.6203 26.1906C68.7743 26.0377 68.8513 25.7532 68.8513 25.337Z" fill="#050505"/>
<path d="M76.7674 22.1749H74.2503V25.5511C74.2503 25.8739 74.3142 26.099 74.4426 26.2264C74.5709 26.3538 74.7982 26.4175 75.1232 26.4175H76.7674C77.0241 26.4175 77.1524 26.545 77.1524 26.7998V27.2839C77.1524 27.5387 77.0241 27.6661 76.7674 27.6661H74.507C73.8822 27.6661 73.4201 27.5217 73.1202 27.2329C72.829 26.9441 72.6838 26.4855 72.6838 25.8569V22.1749H71.6819C71.4252 22.1749 71.2969 22.0475 71.2969 21.7926V21.3212C71.2969 21.0664 71.4252 20.939 71.6819 20.939H72.6838L72.9016 19.7286C72.9618 19.5163 73.107 19.4102 73.3387 19.4102H73.8646C74.122 19.4102 74.2503 19.5375 74.2503 19.7923V20.939H76.7674C77.0241 20.939 77.1524 21.0664 77.1524 21.3212V21.7926C77.1524 22.0475 77.0241 22.1749 76.7674 22.1749Z" fill="#050505"/>
<path d="M80.3156 27.6685C79.5623 27.6685 79.0188 27.5071 78.6845 27.1844C78.3508 26.8531 78.1836 26.3095 78.1836 25.5536V23.0564C78.1836 22.3004 78.3508 21.7611 78.6845 21.4383C79.0188 21.1071 79.5623 20.9414 80.3156 20.9414H83.3717C84.1249 20.9414 84.669 21.1071 85.0028 21.4383C85.3365 21.7611 85.5037 22.3004 85.5037 23.0564V25.5536C85.5037 26.3095 85.3365 26.8531 85.0028 27.1844C84.669 27.5071 84.1249 27.6685 83.3717 27.6685H80.3156ZM80.829 26.4199H82.8583C83.2778 26.4199 83.5602 26.3435 83.7054 26.1906C83.8595 26.0377 83.9371 25.7532 83.9371 25.337V23.273C83.9371 22.8568 83.8595 22.5723 83.7054 22.4194C83.5602 22.2665 83.2778 22.19 82.8583 22.19H80.829C80.4095 22.19 80.1227 22.2665 79.9687 22.4194C79.8234 22.5723 79.7508 22.8568 79.7508 23.273V25.337C79.7508 25.7532 79.8234 26.0377 79.9687 26.1906C80.1227 26.3435 80.4095 26.4199 80.829 26.4199Z" fill="#050505"/>
<g filter="url(#filter0_ii_96_35090)">
<path opacity="0.5" d="M0.80877 21.0197C-0.269589 19.1403 -0.269589 16.8265 0.808764 14.947L6.48958 5.04614C7.57096 3.16145 9.57232 2 11.7386 2L23.0777 2C25.244 2 27.2453 3.16145 28.3267 5.04614L34.0075 14.947C35.0858 16.8265 35.0858 19.1403 34.0075 21.0197L28.3267 30.9206C27.2453 32.8053 25.244 33.9667 23.0777 33.9667H11.7386C9.57232 33.9667 7.57096 32.8053 6.48958 30.9206L0.80877 21.0197Z" fill="#050505"/>
</g>
<path fill-rule="evenodd" clip-rule="evenodd" d="M18.1377 16.9277L11.4506 5.2793L9.70117 6.29182L16.3942 17.9505L9.70117 29.6092L11.4506 30.6217L18.1481 18.9551H31.5761V16.9277H18.1377ZM17.5985 17.9609L17.5804 17.9505L17.5985 17.9401V17.9609Z" fill="url(#paint0_radial_96_35090)"/>
<path opacity="0.75" fill-rule="evenodd" clip-rule="evenodd" d="M2.7854 20.9121C1.71997 19.1065 1.71997 16.8612 2.7854 15.0556L5.24714 10.8838L7.60467 6.65982C8.62883 4.82485 10.5699 3.69866 12.6646 3.72405L17.4764 3.78238L22.2881 3.72405C24.3829 3.69866 26.324 4.82486 27.3481 6.65982L29.7056 10.8838L32.1674 15.0556C33.2328 16.8612 33.2328 19.1065 32.1674 20.9121L29.7056 25.0839L27.3481 29.3079C26.324 31.1428 24.3829 32.269 22.2881 32.2436L17.4764 32.1853L12.6646 32.2436C10.5699 32.269 8.62877 31.1428 7.60467 29.3079L5.24714 25.0839L2.7854 20.9121ZM4.52262 16.0891C3.83322 17.2575 3.83322 18.7102 4.52262 19.8786L6.99057 24.061C6.9947 24.0679 6.99871 24.075 7.00271 24.0821L9.36616 28.3167C10.0289 29.504 11.2848 30.2327 12.6403 30.2163L17.4642 30.1578C17.4723 30.1577 17.4805 30.1577 17.4886 30.1578L22.3125 30.2163C23.6679 30.2327 24.924 29.504 25.5866 28.3167L27.9501 24.0821C27.9541 24.075 27.9581 24.0679 27.9623 24.061L30.4301 19.8786C31.1196 18.7102 31.1196 17.2575 30.4301 16.0891L27.9623 11.9067C27.9581 11.8998 27.9541 11.8927 27.9501 11.8856L25.5866 7.65101C24.924 6.46368 23.6679 5.73496 22.3125 5.75139L17.4886 5.80986C17.4805 5.80996 17.4723 5.80996 17.4642 5.80986L12.6403 5.75139C11.2848 5.73496 10.0289 6.46367 9.36616 7.65101L7.00271 11.8856C6.99871 11.8927 6.9947 11.8998 6.99057 11.9067L4.52262 16.0891Z" fill="#050505"/>
<path opacity="0.75" fill-rule="evenodd" clip-rule="evenodd" d="M12.2612 9.9912C12.5021 9.55911 12.959 9.29393 13.4521 9.2999L17.6407 9.35076L21.8293 9.2999C22.3224 9.29393 22.7793 9.55911 23.0202 9.9912L25.0787 13.6831C25.4419 14.3344 25.2105 15.1581 24.5617 15.5227C23.9131 15.8874 23.0927 15.655 22.7296 15.0036L21.0618 12.0127L17.657 12.054C17.6461 12.0542 17.6353 12.0542 17.6244 12.054L14.2196 12.0127L12.5518 15.0036C12.5466 15.0131 12.5412 15.0225 12.5357 15.0319L10.7952 17.9842L12.5357 20.9366C12.5412 20.946 12.5466 20.9553 12.5518 20.9648L14.2196 23.9557L17.6244 23.9144C17.6353 23.9143 17.6461 23.9143 17.657 23.9144L21.0618 23.9557L22.7296 20.9648C23.0927 20.3134 23.9131 20.081 24.5617 20.4457C25.2105 20.8103 25.4419 21.634 25.0787 22.2854L23.0202 25.9772C22.7793 26.4093 22.3224 26.6745 21.8293 26.6685L17.6407 26.6177L13.4521 26.6685C12.959 26.6745 12.5021 26.4093 12.2612 25.9772L10.2106 22.2996L8.07251 18.6727C7.82218 18.2481 7.82218 17.7203 8.07251 17.2958L10.2106 13.6689L12.2612 9.9912Z" fill="#050505"/>
<path d="M15.1523 15.3233C15.1523 14.8061 15.7073 14.4806 16.156 14.7346L20.9777 17.4638C21.4344 17.7223 21.4344 18.3827 20.9777 18.6412L16.156 21.3705C15.7073 21.6245 15.1523 21.2989 15.1523 20.7818V15.3233Z" fill="#050505"/>
<path fill-rule="evenodd" clip-rule="evenodd" d="M17.5582 18.1453C18.0462 17.8745 18.6605 18.0522 18.9302 18.5422L20.3437 21.1104C20.6134 21.6004 20.4364 22.2172 19.9483 22.488C19.4603 22.7588 18.846 22.5811 18.5763 22.091L17.1629 19.5229C16.8932 19.0329 17.0701 18.4161 17.5582 18.1453Z" fill="#050505"/>
<defs>
<filter id="filter0_ii_96_35090" x="0" y="2" width="34.8163" height="32.2182" filterUnits="userSpaceOnUse" color-interpolation-filters="sRGB">
<feFlood flood-opacity="0" result="BackgroundImageFix"/>
<feBlend mode="normal" in="SourceGraphic" in2="BackgroundImageFix" result="shape"/>
<feColorMatrix in="SourceAlpha" type="matrix" values="0 0 0 0 0 0 0 0 0 0 0 0 0 0 0 0 0 0 127 0" result="hardAlpha"/>
<feOffset dy="0.251473"/>
<feGaussianBlur stdDeviation="0.125737"/>
<feComposite in2="hardAlpha" operator="arithmetic" k2="-1" k3="1"/>
<feColorMatrix type="matrix" values="0 0 0 0 1 0 0 0 0 1 0 0 0 0 1 0 0 0 0.15 0"/>
<feBlend mode="normal" in2="shape" result="effect1_innerShadow_96_35090"/>
<feColorMatrix in="SourceAlpha" type="matrix" values="0 0 0 0 0 0 0 0 0 0 0 0 0 0 0 0 0 0 127 0" result="hardAlpha"/>
<feOffset/>
<feGaussianBlur stdDeviation="2.13752"/>
<feComposite in2="hardAlpha" operator="arithmetic" k2="-1" k3="1"/>
<feColorMatrix type="matrix" values="0 0 0 0 1 0 0 0 0 1 0 0 0 0 1 0 0 0 0.05 0"/>
<feBlend mode="normal" in2="effect1_innerShadow_96_35090" result="effect2_innerShadow_96_35090"/>
</filter>
<radialGradient id="paint0_radial_96_35090" cx="0" cy="0" r="1" gradientTransform="matrix(8.23784 -12.3935 12.3355 8.26633 17.0922 17.9414)" gradientUnits="userSpaceOnUse">
<stop stop-color="#050505" stop-opacity="0"/>
<stop offset="1" stop-color="#050505"/>
</radialGradient>
</defs>
</svg>
