<svg width="20" height="20" viewBox="0 0 20 20" fill="none" xmlns="http://www.w3.org/2000/svg">
<g clip-path="url(#clip0_86_26960)">
<path d="M9.16699 2.5L9.16703 1.66667H9.16699V2.5ZM15.833 9.16699L16.6663 9.16703V9.16699H15.833ZM15.2422 11.9092L14.4829 11.5659C14.34 11.8818 14.4077 12.2532 14.6529 12.4984L15.2422 11.9092ZM17.5 14.167L18.0893 14.7562C18.4147 14.4308 18.4147 13.9032 18.0893 13.5777L17.5 14.167ZM14.167 17.5L13.5777 18.0893C13.9032 18.4147 14.4308 18.4147 14.7562 18.0893L14.167 17.5ZM11.9092 15.2422L12.4984 14.6529C12.2532 14.4077 11.8818 14.34 11.5659 14.4829L11.9092 15.2422ZM9.16699 15.833V16.6663H9.16703L9.16699 15.833ZM2.5 9.16699H1.66667V9.16703L2.5 9.16699ZM2.5 2.5V1.66667C2.03976 1.66667 1.66667 2.03976 1.66667 2.5H2.5ZM9.16699 2.5L9.16695 3.33333C12.3884 3.33349 14.9997 5.94532 14.9997 9.16699H15.833H16.6663C16.6663 5.02508 13.3091 1.66686 9.16703 1.66667L9.16699 2.5ZM15.833 9.16699L14.9997 9.16695C14.9996 10.0229 14.8138 10.8338 14.4829 11.5659L15.2422 11.9092L16.0015 12.2525C16.4271 11.3113 16.6663 10.2669 16.6663 9.16703L15.833 9.16699ZM15.2422 11.9092L14.6529 12.4984L16.9107 14.7562L17.5 14.167L18.0893 13.5777L15.8314 11.3199L15.2422 11.9092ZM17.5 14.167L16.9107 13.5777L13.5777 16.9107L14.167 17.5L14.7562 18.0893L18.0893 14.7562L17.5 14.167ZM14.167 17.5L14.7562 16.9107L12.4984 14.6529L11.9092 15.2422L11.3199 15.8314L13.5777 18.0893L14.167 17.5ZM11.9092 15.2422L11.5659 14.4829C10.8338 14.8138 10.0229 14.9996 9.16695 14.9997L9.16699 15.833L9.16703 16.6663C10.2669 16.6663 11.3113 16.4271 12.2525 16.0015L11.9092 15.2422ZM9.16699 15.833V14.9997C5.94532 14.9997 3.33349 12.3884 3.33333 9.16695L2.5 9.16699L1.66667 9.16703C1.66687 13.3091 5.02508 16.6663 9.16699 16.6663V15.833ZM2.5 9.16699H3.33333V2.5H2.5H1.66667V9.16699H2.5ZM2.5 2.5V3.33333H9.16699V2.5V1.66667H2.5V2.5Z" fill="#050505"/>
<ellipse cx="9.16658" cy="9.16658" rx="1.66667" ry="1.66667" transform="rotate(-180 9.16658 9.16658)" fill="#050505"/>
<path d="M2.5 2.5L9.16667 9.16667" stroke="#050505" stroke-width="1.66667" stroke-linecap="round" stroke-linejoin="round"/>
</g>
<defs>
<clipPath id="clip0_86_26960">
<rect width="20" height="20" fill="white"/>
</clipPath>
</defs>
</svg>
