<svg width="20" height="20" viewBox="0 0 20 20" fill="none" xmlns="http://www.w3.org/2000/svg">
<path d="M7.5 17.5H12.5M10 2.5C7.23858 2.5 5 4.73858 5 7.5C5 8.51208 5.3007 9.45393 5.81764 10.2411C6.61256 11.4515 7.00967 12.0564 7.06127 12.1467C7.52024 12.9508 7.43573 12.6672 7.49349 13.5913C7.49998 13.6952 7.5 13.8524 7.5 14.1667C7.5 14.6269 7.8731 15 8.33333 15L11.6667 15C12.1269 15 12.5 14.6269 12.5 14.1667C12.5 13.8524 12.5 13.6952 12.5065 13.5913C12.5643 12.6672 12.4793 12.9509 12.9382 12.1467C12.9898 12.0564 13.3876 11.4515 14.1825 10.2411C14.6995 9.45393 15.0002 8.51208 15.0002 7.5C15.0002 4.73858 12.7614 2.5 10 2.5Z" stroke="#050505" stroke-width="1.66667" stroke-linecap="round" stroke-linejoin="round"/>
</svg>
