<svg width="40" height="40" viewBox="0 0 40 40" fill="none" xmlns="http://www.w3.org/2000/svg">
<path d="M20 0C20.4195 0 20.7843 0.286485 20.8866 0.693433C21.2004 1.93817 21.6096 3.15228 22.1189 4.33335C23.4454 7.41505 25.2656 10.1124 27.5766 12.4234C29.8887 14.7344 32.585 16.5546 35.6667 17.8812C36.8488 18.3904 38.0619 18.7996 39.3066 19.1134C39.7135 19.2157 39.9999 19.5806 40 20C40 20.4195 39.7136 20.7844 39.3066 20.8866C38.0619 21.2004 36.8477 21.6096 35.6667 22.1189C32.5849 23.4454 29.8876 25.2656 27.5766 27.5766C25.2656 29.8888 23.4454 32.5849 22.1189 35.6667C21.6096 36.8489 21.2004 38.0619 20.8866 39.3066C20.7844 39.7136 20.4195 40 20 40C19.5806 39.9999 19.2157 39.7135 19.1134 39.3066C18.7996 38.0619 18.3904 36.8477 17.8812 35.6667C16.5546 32.585 14.7355 29.8876 12.4234 27.5766C10.1112 25.2656 7.41505 23.4454 4.33335 22.1189C3.15115 21.6096 1.93817 21.2004 0.693433 20.8866C0.286485 20.7843 0 20.4195 0 20C5.34807e-05 19.5806 0.286512 19.2157 0.693433 19.1134C1.93817 18.7996 3.15227 18.3905 4.33335 17.8812C7.41511 16.5546 10.1124 14.7344 12.4234 12.4234C14.7344 10.1124 16.5546 7.41511 17.8812 4.33335C18.3905 3.15114 18.7996 1.93817 19.1134 0.693433C19.2157 0.286512 19.5806 5.34807e-05 20 0Z" fill="#050505"/>
</svg>
