<svg width="40" height="40" viewBox="0 0 40 40" fill="none" xmlns="http://www.w3.org/2000/svg">
<path d="M24.6367 5.25488C24.2517 5.28822 23.85 5.32155 23.465 5.37155C21.8223 5.55442 20.2246 6.02493 18.745 6.76155C17.2197 7.50821 15.8331 8.50983 14.645 9.72322C14.595 9.78988 14.495 9.82322 14.41 9.80655C13.5849 9.6839 12.7496 9.64481 11.9167 9.68988C10.2177 9.77337 8.55416 10.2063 7.03 10.9615C4.08333 12.4349 2.00833 14.7282 0.803333 17.8082C0.363693 18.9495 0.103932 20.1522 0.0333333 21.3732C0.0333333 21.4565 0.0166667 21.5232 0 21.5899V22.8782C0.0333333 23.2132 0.0833333 23.5315 0.116667 23.8665C0.283333 25.2215 0.67 26.5265 1.28833 27.7499C2.66167 30.4932 4.77 32.5015 7.59833 33.7399C8.88991 34.3093 10.2726 34.644 11.6817 34.7282C11.735 34.7282 11.7817 34.7349 11.825 34.7449H26.1183C26.4233 34.7165 26.7217 34.6866 27.03 34.6449C28.6615 34.4617 30.2476 33.9911 31.715 33.2549C34.2211 32.0317 36.3283 30.1221 37.7917 27.7482C38.7938 26.1823 39.4653 24.428 39.765 22.5932C39.8483 22.0265 39.8983 21.4399 39.9667 20.8699C39.9667 20.7866 39.9833 20.7199 40 20.6532V19.3299C39.9667 18.9465 39.9167 18.5765 39.9167 18.2265C39.7337 16.5945 39.2631 15.0078 38.5267 13.5399C37.2854 11.036 35.3658 8.93107 32.9867 7.46488C31.4288 6.47487 29.6875 5.80884 27.8667 5.50655C27.2633 5.40655 26.6783 5.35655 26.075 5.28988C25.9917 5.28988 25.925 5.27322 25.8417 5.25655L24.6367 5.25488ZM25.2517 8.07655C28.795 8.08488 31.8017 9.45322 34.2433 12.1682C35.6258 13.7365 36.5567 15.6507 36.9367 17.7065C37.1867 18.9799 37.2383 20.2849 37.0533 21.5732C36.7367 23.8165 35.8833 25.8232 34.4267 27.5815C32.7341 29.6595 30.3847 31.0995 27.765 31.6649C26.3637 31.9716 24.9193 32.0281 23.4983 31.8316C21.6733 31.5982 20 30.9965 18.4933 29.9082C18.0936 29.6222 17.7189 29.3027 17.3733 28.9532C15.33 26.9449 13.3067 24.9199 11.2633 22.9115C10.7617 22.4115 10.7283 21.8582 10.9633 21.3549C11.0862 21.0862 11.2926 20.8644 11.5518 20.7227C11.8111 20.5809 12.1092 20.5267 12.4017 20.5682C12.7517 20.6015 13.0217 20.8032 13.2717 21.0549C15.1133 22.9115 16.9383 24.7365 18.7783 26.5949C20.1598 28.0037 21.976 28.9056 23.9333 29.1549C27.18 29.5899 29.9417 28.5865 32.1333 26.1582C33.3217 24.8365 34.0417 23.2465 34.3433 21.4732C34.7767 18.8282 34.16 16.4516 32.5183 14.3599C31.0633 12.5015 29.155 11.3465 26.845 10.9282C24.485 10.5115 22.26 10.9615 20.235 12.2515C20.185 12.2849 20.0683 12.3015 20.0167 12.2682C19.2804 11.7235 18.4961 11.2471 17.6733 10.8449C17.6733 10.8449 17.6567 10.8282 17.64 10.7949C18.2828 10.2597 18.9846 9.79946 19.7317 9.42322C21.0915 8.68501 22.5909 8.23989 24.1333 8.11655C24.5049 8.08845 24.8774 8.07511 25.25 8.07655H25.2517ZM12.5767 12.5149C15.0017 12.4749 17.2283 13.3899 19.2133 15.2315C20.6367 16.5682 21.9417 17.9582 23.3133 19.3482C23.6983 19.7315 23.7817 20.2182 23.5983 20.7366C23.415 21.2549 22.995 21.5066 22.46 21.5899C22.2665 21.6163 22.0695 21.5951 21.886 21.5284C21.7025 21.4616 21.538 21.3511 21.4067 21.2065C20.1 19.8999 18.795 18.6115 17.5067 17.2899C16.4517 16.2015 15.1967 15.5815 13.7233 15.3132C10.46 14.7282 7.16333 16.6199 5.99167 19.7149C4.485 23.6482 6.86167 28.0999 10.9617 29.0382C11.765 29.2215 12.62 29.2216 13.4567 29.2049C13.69 29.1882 13.8233 29.2715 13.99 29.4215C14.795 30.2099 15.6483 30.9965 16.485 31.7815C16.535 31.8315 16.6017 31.8815 16.6517 31.9315C16.5517 31.9315 16.485 31.9482 16.4183 31.9482H12.585C10.3733 31.9478 8.22788 31.1932 6.50285 29.8091C4.77782 28.4249 3.57632 26.4939 3.09667 24.3349C2.00833 19.4315 4.82 14.4599 9.64 13.0049C10.5908 12.7036 11.5795 12.5386 12.5767 12.5149Z" fill="#050505"/>
</svg>
