<svg width="26" height="36" viewBox="0 0 26 36" fill="none" xmlns="http://www.w3.org/2000/svg">
<g clip-path="url(#clip0_72_16173)">
<path d="M23.9035 6.77734C23.9035 9.8764 21.3912 12.3887 18.2921 12.3887H12.535V1.16602H18.2921C21.3912 1.16602 23.9035 3.67829 23.9035 6.77734Z" stroke="#050505" stroke-width="2.19804"/>
<path d="M1.16663 6.77734C1.16663 9.8764 3.6789 12.3887 6.77796 12.3887H12.535V1.16602H6.77796C3.6789 1.16602 1.16663 3.67829 1.16663 6.77734Z" stroke="#050505" stroke-width="2.19804"/>
<path d="M1.16663 18.0002C1.16663 21.0993 3.6789 23.6116 6.77796 23.6116H12.535V12.3889H6.77796C3.6789 12.3889 1.16663 14.9012 1.16663 18.0002Z" stroke="#050505" stroke-width="2.19804"/>
<path d="M1.16663 29.2227C1.16663 32.3217 3.71511 34.834 6.81417 34.834C9.95347 34.834 12.535 32.2891 12.535 29.1498V23.6113H6.77796C3.6789 23.6113 1.16663 26.1236 1.16663 29.2227Z" stroke="#050505" stroke-width="2.19804"/>
<path d="M12.535 18.0002C12.535 21.0993 15.0473 23.6116 18.1464 23.6116H18.2921C21.3912 23.6116 23.9035 21.0993 23.9035 18.0002C23.9035 14.9012 21.3912 12.3889 18.2921 12.3889H18.1464C15.0473 12.3889 12.535 14.9012 12.535 18.0002Z" stroke="#050505" stroke-width="2.19804"/>
</g>
<defs>
<clipPath id="clip0_72_16173">
<rect width="25.07" height="36" fill="white"/>
</clipPath>
</defs>
</svg>
