<svg width="40" height="40" viewBox="0 0 40 40" fill="none" xmlns="http://www.w3.org/2000/svg">
<g clip-path="url(#clip0_72_16209)">
<path d="M7.79866 26.6739L15.6215 22.2846L15.753 21.9034L15.6215 21.6914H15.2403L13.9329 21.6108L9.46309 21.49L5.58658 21.3289L1.83087 21.1276L0.885907 20.9263L0 19.7585L0.0912762 19.1759L0.885907 18.6417L2.02416 18.741L4.5396 18.9128L8.31409 19.1732L11.0523 19.3343L15.1087 19.7558H15.753L15.8443 19.4954L15.6242 19.3343L15.4524 19.1732L11.5463 16.5263L7.31812 13.7289L5.10336 12.1182L3.90604 11.3021L3.30201 10.537L3.04161 8.8672L4.12886 7.66988L5.58926 7.76921L5.96242 7.86854L7.44161 9.00679L10.6013 11.4524L14.7275 14.4914L15.3315 14.9934L15.5732 14.8216L15.6027 14.7007L15.3315 14.2471L13.0872 10.1907L10.6926 6.06451L9.62685 4.35444L9.34497 3.32894C9.24564 2.90746 9.17315 2.5531 9.17315 2.12089L10.4107 0.440348L11.0953 0.220215L12.7463 0.440348L13.4416 1.04438L14.4671 3.39068L16.1289 7.08465L18.706 12.1075L19.4604 13.5974L19.8631 14.9773L20.0134 15.3987H20.2738V15.1571L20.4859 12.3276L20.8779 8.85377L21.2591 4.38397L21.3906 3.12491L22.0134 1.61619L23.251 0.800081L24.2175 1.26182L25.0121 2.40008L24.902 3.13565L24.4295 6.20679L23.5034 11.0175L22.8993 14.239H23.251L23.6537 13.8363L25.2832 11.6726L28.0215 8.24975L29.2295 6.89135L30.6389 5.39068L31.5436 4.67659H33.2537L34.5128 6.54773L33.949 8.48062L32.1879 10.7142L30.7275 12.6068L28.6336 15.4256L27.3262 17.6806L27.447 17.8605L27.7584 17.831L32.4886 16.8242L35.0443 16.3625L38.094 15.839L39.4738 16.4833L39.6242 17.1383L39.0819 18.4779L35.8201 19.2833L31.9946 20.0484L26.298 21.3961L26.2282 21.4471L26.3087 21.5464L28.8752 21.788L29.9732 21.8471H32.6604L37.6644 22.2202L38.9718 23.0846L39.7557 24.1424L39.6242 24.9477L37.6107 25.9732L34.894 25.3289L28.553 23.8202L26.3785 23.2779H26.0779V23.4578L27.8899 25.2296L31.2107 28.2283L35.3691 32.094L35.5812 33.0497L35.047 33.8041L34.4832 33.7236L30.8295 30.9746L29.4201 29.737L26.2282 27.0497H26.0161V27.3316L26.7517 28.4081L30.6362 34.2471L30.8376 36.0377L30.5557 36.6202L29.549 36.9719L28.443 36.7705L26.1691 33.5786L23.8228 29.984L21.9302 26.7625L21.6993 26.894L20.5826 38.9236L20.0591 39.5383L18.851 40.0001L17.8443 39.235L17.3101 37.9974L17.8443 35.5518L18.4886 32.3598L19.0121 29.8229L19.4846 26.6712L19.7664 25.6242L19.7477 25.5544L19.5168 25.584L17.1409 28.8457L13.5275 33.7289L10.6685 36.7893L9.98389 37.0605L8.79732 36.4457L8.90738 35.3477L9.57047 34.3705L13.5275 29.337L15.9141 26.2175L17.455 24.4162L17.4443 24.1558H17.353L6.84295 30.9799L4.97181 31.2216L4.16644 30.4672L4.26577 29.2296L4.64698 28.8269L7.80671 26.6524L7.79597 26.6632L7.79866 26.6739Z" fill="#050505"/>
</g>
<defs>
<clipPath id="clip0_72_16209">
<rect width="40" height="40" fill="white"/>
</clipPath>
</defs>
</svg>
