<svg width="40" height="40" viewBox="0 0 40 40" fill="none" xmlns="http://www.w3.org/2000/svg">
<g clip-path="url(#clip0_72_16182)">
<path d="M37.1325 16.3712C38.04 13.6474 37.7275 10.6637 36.2763 8.18619C34.0938 4.38619 29.7063 2.43119 25.4213 3.35119C23.515 1.20369 20.7763 -0.0175586 17.905 -5.86116e-05C13.525 -0.0100586 9.63876 2.80994 8.29126 6.97744C5.47751 7.55369 3.04876 9.31494 1.62751 11.8112C-0.571239 15.6012 -0.0699894 20.3787 2.86751 23.6287C1.96001 26.3524 2.27251 29.3362 3.72376 31.8137C5.90626 35.6137 10.2938 37.5687 14.5788 36.6487C16.4838 38.7962 19.2238 40.0174 22.095 39.9987C26.4775 40.0099 30.365 37.1874 31.7125 33.0162C34.5263 32.4399 36.955 30.6787 38.3763 28.1824C40.5725 24.3924 40.07 19.6187 37.1338 16.3687L37.1325 16.3712ZM22.0975 37.3849C20.3438 37.3874 18.645 36.7737 17.2988 35.6499C17.36 35.6174 17.4663 35.5587 17.535 35.5162L25.5 30.9162C25.9075 30.6849 26.1575 30.2512 26.155 29.7824V18.5537L29.5213 20.4974C29.5575 20.5149 29.5813 20.5499 29.5863 20.5899V29.8887C29.5813 34.0237 26.2325 37.3762 22.0975 37.3849ZM5.99251 30.5062C5.11376 28.9887 4.79751 27.2099 5.09876 25.4837C5.15751 25.5187 5.26126 25.5824 5.33501 25.6249L13.3 30.2249C13.7038 30.4612 14.2038 30.4612 14.6088 30.2249L24.3325 24.6099V28.4974C24.335 28.5374 24.3163 28.5762 24.285 28.6012L16.2338 33.2499C12.6475 35.3149 8.06751 34.0874 5.99376 30.5062H5.99251ZM3.89626 13.1199C4.77126 11.5999 6.15251 10.4374 7.79751 9.83369C7.79751 9.90244 7.79376 10.0237 7.79376 10.1087V19.3099C7.79126 19.7774 8.04126 20.2112 8.44751 20.4424L18.1713 26.0562L14.805 27.9999C14.7713 28.0224 14.7288 28.0262 14.6913 28.0099L6.63876 23.3574C3.06001 21.2849 1.83251 16.7062 3.89501 13.1212L3.89626 13.1199ZM31.5538 19.5562L21.83 13.9412L25.1963 11.9987C25.23 11.9762 25.2725 11.9724 25.31 11.9887L33.3625 16.6374C36.9475 18.7087 38.1763 23.2949 36.105 26.8799C35.2288 28.3974 33.8488 29.5599 32.205 30.1649V20.6887C32.2088 20.2212 31.96 19.7887 31.555 19.5562H31.5538ZM34.9038 14.5137C34.845 14.4774 34.7413 14.4149 34.6675 14.3724L26.7025 9.77244C26.2988 9.53619 25.7988 9.53619 25.3938 9.77244L15.67 15.3874V11.4999C15.6675 11.4599 15.6863 11.4212 15.7175 11.3962L23.7688 6.75119C27.355 4.68244 31.94 5.91369 34.0075 9.50119C34.8813 11.0162 35.1975 12.7899 34.9013 14.5137H34.9038ZM13.84 21.4424L10.4725 19.4987C10.4363 19.4812 10.4125 19.4462 10.4075 19.4062V10.1074C10.41 5.96744 13.7688 2.61244 17.9088 2.61494C19.66 2.61494 21.355 3.22994 22.7013 4.34994C22.64 4.38244 22.535 4.44119 22.465 4.48369L14.5 9.08369C14.0925 9.31494 13.8425 9.74744 13.845 10.2162L13.84 21.4399V21.4424ZM15.6688 17.4999L20 14.9987L24.3313 17.4987V22.4999L20 24.9999L15.6688 22.4999V17.4999Z" fill="#050505"/>
</g>
<defs>
<clipPath id="clip0_72_16182">
<rect width="40" height="40" fill="white"/>
</clipPath>
</defs>
</svg>
