<svg width="40" height="40" viewBox="0 0 40 40" fill="none" xmlns="http://www.w3.org/2000/svg">
<path d="M19.7974 0.00231095C21.7075 -0.0642653 23.0139 1.3177 23.9014 2.84831C24.286 3.52561 24.6181 4.23122 24.8954 4.95901C25.2836 5.96487 26.5495 10.0399 26.2946 10.9691C26.194 11.3372 25.9489 11.649 25.615 11.8339C25.2755 12.0196 24.8754 12.061 24.5051 11.9487C24.182 11.8511 23.7984 11.5614 23.6698 11.2563C23.446 10.7244 23.368 9.97044 23.228 9.38069C22.8425 7.75404 22.3954 6.12789 21.6252 4.63361C21.321 4.07545 20.7382 3.08908 20.1308 2.88695C19.4728 2.75427 18.7525 3.95617 18.5128 4.38554C17.603 6.01558 17.1498 7.80136 16.7232 9.59727C16.3496 11.4973 16.1154 12.9957 15.9356 14.9359C15.8286 16.1118 15.7623 17.291 15.7369 18.4715C15.7267 18.8457 15.7195 19.22 15.7153 19.5943C15.7077 20.0998 15.7511 20.3996 15.4406 20.833C14.7008 21.8656 13.0727 21.478 12.8823 20.2268C12.8301 19.8839 12.8576 19.4249 12.8635 19.0732C12.8722 18.4172 12.892 17.7614 12.9229 17.106C13.1318 12.7125 14.0254 5.4121 16.7312 1.89677C17.5607 0.819079 18.4203 0.180563 19.7974 0.00231095Z" fill="#050505"/>
<path d="M25.5195 18.5891C25.845 18.5644 26.158 18.6056 26.4425 18.7745C26.757 18.9613 27.005 19.2746 27.0908 19.6328C27.222 20.1806 27.1211 21.541 27.1049 22.1838C26.9907 26.7286 26.1263 33.5526 23.7241 37.4425C23.0512 38.5318 22.0438 39.6198 20.7531 39.9158C19.8272 40.1282 18.9196 39.9284 18.1234 39.4288C15.9595 38.0711 14.7101 34.3566 14.168 32.0068C13.9946 31.4218 13.5909 29.7158 13.6754 29.1678C13.7292 28.8198 13.9257 28.488 14.2118 28.2808C14.5289 28.0465 14.9275 27.9512 15.3163 28.0169C15.7472 28.0854 16.1213 28.3511 16.3275 28.7356C16.4233 28.9149 16.48 29.1187 16.5101 29.3165C16.7665 30.9999 18.1999 36.8645 20.0578 37.1534C20.823 36.8554 21.4305 35.798 21.7641 35.0786C23.5145 31.3043 24.091 26.2585 24.2467 22.1381C24.2646 21.6408 24.2765 21.1436 24.2822 20.6461C24.2935 19.948 24.2238 19.3267 24.8569 18.8637C25.0762 18.7032 25.2546 18.6391 25.5195 18.5891Z" fill="#050505"/>
<path d="M10.5087 13.6596C11.2364 13.5834 11.9702 14.2103 11.9992 14.9412C12.0652 16.6011 10.4782 16.4925 9.34361 16.7825C7.20333 17.3296 4.72297 17.9047 3.1037 19.4903C2.28853 20.2897 3.95095 21.2763 4.52578 21.5638C8.01273 23.3075 12.2582 23.8848 16.1137 24.1596C16.9906 24.218 17.8686 24.2578 18.7472 24.2791C19.2588 24.2895 19.8212 24.2657 20.3247 24.3308C20.4906 24.3522 20.7169 24.4683 20.8538 24.5706C21.1575 24.7987 21.3573 25.1386 21.4084 25.515C21.5321 26.3705 20.9403 27.0313 20.1061 27.1385C19.2467 27.1655 18.3779 27.1261 17.5189 27.0928C12.9993 26.9173 5.31778 26.0203 1.76868 23.1706C0.884167 22.4603 0.13883 21.5071 0.017464 20.3472C-0.0848026 19.3697 0.269375 18.4377 0.888411 17.6888C2.53851 15.6924 5.87227 14.6754 8.30125 14.093C9.02336 13.9198 9.76922 13.7294 10.5087 13.6596Z" fill="#050505"/>
<path d="M19.7856 12.871C20.9204 12.8138 22.0878 12.8826 23.2218 12.9451C27.5752 13.1851 34.3061 14.0398 37.8484 16.5423C38.8419 17.2442 39.7466 18.2172 39.9559 19.4552C40.1152 20.3988 39.8338 21.3291 39.2785 22.0964C37.5081 24.5423 32.5629 25.8731 29.6825 26.3275C29.3485 26.3547 29.0244 26.357 28.7247 26.1814C28.3866 25.983 28.1315 25.6529 28.0368 25.2717C27.9431 24.8963 28.0039 24.499 28.2056 24.1686C28.5738 23.5786 29.1341 23.5259 29.7607 23.406C30.1034 23.3429 30.4446 23.2723 30.7841 23.1944C32.6924 22.7455 34.7961 22.1334 36.402 20.9725C36.6798 20.7716 37.2656 20.2312 37.1106 19.8548C36.8405 19.1985 35.887 18.636 35.2825 18.3399C32.7837 17.1157 29.8554 16.5172 27.1124 16.1609C25.6114 15.9665 24.1031 15.8357 22.5909 15.7688C22.0427 15.75 21.4941 15.7356 20.9456 15.7255C20.4416 15.7192 19.7364 15.7843 19.2962 15.5298C18.9625 15.3355 18.7194 15.0168 18.6206 14.6435C18.5222 14.2783 18.5758 13.8888 18.7689 13.5636C19.012 13.1583 19.3402 12.9793 19.7856 12.871Z" fill="#050505"/>
</svg>
