<svg width="33" height="36" viewBox="0 0 33 36" fill="none" xmlns="http://www.w3.org/2000/svg">
<g clip-path="url(#clip0_72_16186)">
<path d="M13.2881 14.7768C17.4531 12.496 23.2048 9.32264 23.2048 0.000976562H16.2631C16.2631 5.15764 13.784 6.54598 9.91648 8.72764C5.75148 11.0085 -0.000183105 14.1818 -0.000183105 23.4043H6.94148C6.94148 18.2476 9.42065 16.8593 13.2881 14.7768Z" fill="#050505"/>
<path d="M25.1874 12.5947C25.1874 17.7514 22.7082 19.1397 18.8407 21.3214C14.6757 23.6022 8.92407 26.7756 8.92407 36.0972H15.8657C15.8657 30.9406 18.3449 29.5522 22.2124 27.3706C26.3774 25.0897 32.1291 21.9164 32.1291 12.5947H25.1874Z" fill="#050505"/>
</g>
<defs>
<clipPath id="clip0_72_16186">
<rect width="32.13" height="36" fill="white"/>
</clipPath>
</defs>
</svg>
