<svg width="32" height="36" viewBox="0 0 32 36" fill="none" xmlns="http://www.w3.org/2000/svg">
<g clip-path="url(#clip0_72_16201)">
<path opacity="0.5" d="M22.5034 4.29545V31.2954C22.5034 34.3166 24.5898 36 26.7989 36C28.8444 36 31.0944 34.5681 31.0944 31.2954V4.5C31.0944 1.73045 29.0489 0 26.7989 0C24.5489 0 22.5034 1.90841 22.5034 4.29545Z" fill="#050505"/>
<path d="M11.2542 18V31.2955C11.2542 34.3166 13.3405 36 15.5496 36C17.5951 36 19.8451 34.5682 19.8451 31.2955V18.2046C19.8451 15.435 17.7996 13.7046 15.5496 13.7046C13.2996 13.7046 11.2542 15.613 11.2542 18Z" fill="#050505"/>
<path d="M4.29962 36.0003C6.67195 36.0003 8.5951 34.0772 8.5951 31.7049C8.5951 29.3326 6.67195 27.4094 4.29962 27.4094C1.9273 27.4094 0.00415039 29.3326 0.00415039 31.7049C0.00415039 34.0772 1.9273 36.0003 4.29962 36.0003Z" fill="#050505"/>
</g>
<defs>
<clipPath id="clip0_72_16201">
<rect width="31.095" height="36" fill="white"/>
</clipPath>
</defs>
</svg>
