<svg width="34" height="38" viewBox="0 0 34 38" fill="none" xmlns="http://www.w3.org/2000/svg">
<path d="M32.541 8.9594L17.3877 0.210749C16.9011 -0.0702496 16.3007 -0.0702496 15.8141 0.210749L0.66159 8.9594C0.252544 9.19558 0 9.63233 0 10.1054V27.7472C0 28.2195 0.252544 28.657 0.66159 28.8932L15.8149 37.6418C16.3015 37.9228 16.9019 37.9228 17.3885 37.6418L32.5417 28.8932C32.9508 28.657 33.2033 28.2202 33.2033 27.7472V10.1054C33.2033 9.63307 32.9508 9.19558 32.5417 8.9594H32.541ZM31.5892 10.8126L16.9609 36.1494C16.862 36.3201 16.601 36.2504 16.601 36.0526V19.4623C16.601 19.1308 16.4238 18.8242 16.1364 18.6577L1.76922 10.363C1.59849 10.2641 1.66821 10.003 1.86597 10.003H31.1225C31.538 10.003 31.7976 10.4533 31.5899 10.8133H31.5892V10.8126Z" fill="#050505"/>
</svg>
