<svg width="40" height="40" viewBox="0 0 40 40" fill="none" xmlns="http://www.w3.org/2000/svg">
<g clip-path="url(#clip0_72_16259)">
<path fill-rule="evenodd" clip-rule="evenodd" d="M19.9404 0C8.91494 0 0.00189209 8.97875 0.00189209 20.0867C0.00189209 28.9659 5.71279 36.4819 13.6353 39.142C14.6258 39.342 14.9887 38.7098 14.9887 38.1781C14.9887 37.7124 14.956 36.1162 14.956 34.4531C9.40958 35.6505 8.25459 32.0586 8.25459 32.0586C7.36324 29.7307 6.04255 29.1324 6.04255 29.1324C4.22721 27.9019 6.17478 27.9019 6.17478 27.9019C8.18847 28.0349 9.24511 29.9637 9.24511 29.9637C11.0274 33.023 13.8994 32.1586 15.0548 31.6264C15.2197 30.3294 15.7482 29.4315 16.3093 28.9328C11.8857 28.4671 7.23142 26.7379 7.23142 19.0223C7.23142 16.8274 8.02318 15.0317 9.27776 13.635C9.07982 13.1363 8.38641 11.0741 9.47611 8.31391C9.47611 8.31391 11.1596 7.78172 14.9556 10.3758C16.5808 9.93607 18.2568 9.7124 19.9404 9.71052C21.6239 9.71052 23.3401 9.94356 24.9249 10.3758C28.7212 7.78172 30.4048 8.31391 30.4048 8.31391C31.4945 11.0741 30.8006 13.1363 30.6027 13.635C31.8903 15.0317 32.6494 16.8274 32.6494 19.0223C32.6494 26.7379 27.9952 28.4337 23.5385 28.9328C24.2649 29.5646 24.8918 30.7616 24.8918 32.6573C24.8918 35.351 24.8592 37.5128 24.8592 38.1776C24.8592 38.7098 25.2224 39.342 26.2125 39.1425C34.135 36.4815 39.8459 28.9659 39.8459 20.0867C39.8786 8.97875 30.9329 0 19.9404 0Z" fill="#050505"/>
</g>
<defs>
<clipPath id="clip0_72_16259">
<rect width="40" height="39.18" fill="white"/>
</clipPath>
</defs>
</svg>
